solid solidname
 facet normal -3.63305e-008 -1 -0
  outer loop
    vertex 52.5 -36.75 0.000100136
    vertex 52.5 -36.75 12.0001
    vertex -52.5 -36.75 0.000100136
  endloop
 endfacet
 facet normal -3.63305e-008 -1 0
  outer loop
    vertex -52.5 -36.75 0.000100136
    vertex 52.5 -36.75 12.0001
    vertex -52.5 -36.75 12.0001
  endloop
 endfacet
 facet normal 1 -5.19006e-008 0
  outer loop
    vertex 52.5 -36.75 12.0001
    vertex 52.5 -36.75 0.000100136
    vertex 52.5 36.75 0.000100136
  endloop
 endfacet
 facet normal 1 1.81221e-008 4.28889e-007
  outer loop
    vertex 52.5 -1.25 10.5001
    vertex 52.5 -36.75 12.0001
    vertex 52.5 36.75 0.000100136
  endloop
 endfacet
 facet normal 1 -1.41285e-007 0
  outer loop
    vertex 52.5 36.75 12.0001
    vertex 52.5 9.75 12.0001
    vertex 52.5 36.75 0.000100136
  endloop
 endfacet
 facet normal 1 -1.41285e-007 0
  outer loop
    vertex 52.5 9.75 12.0001
    vertex 52.5 9.75 10.5001
    vertex 52.5 36.75 0.000100136
  endloop
 endfacet
 facet normal 1 -0 3.63305e-007
  outer loop
    vertex 52.5 9.75 10.5001
    vertex 52.5 -1.25 10.5001
    vertex 52.5 36.75 0.000100136
  endloop
 endfacet
 facet normal 1 0 0
  outer loop
    vertex 52.5 -1.25 10.5001
    vertex 52.5 -1.25 12.0001
    vertex 52.5 -36.75 12.0001
  endloop
 endfacet
 facet normal 0 0 -1
  outer loop
    vertex -49.5 -29.25 0.000100136
    vertex -52.5 -36.75 0.000100136
    vertex -52.5 36.75 0.000100136
  endloop
 endfacet
 facet normal 0 0 -1
  outer loop
    vertex -49.5 -21.25 0.000100136
    vertex -49.5 -29.25 0.000100136
    vertex -52.5 36.75 0.000100136
  endloop
 endfacet
 facet normal 0 0 -1
  outer loop
    vertex 52.5 -36.75 0.000100136
    vertex -52.5 -36.75 0.000100136
    vertex 49.5 -29.25 0.000100136
  endloop
 endfacet
 facet normal 0 0 -1
  outer loop
    vertex 52.5 -36.75 0.000100136
    vertex 49.5 -29.25 0.000100136
    vertex 52.5 36.75 0.000100136
  endloop
 endfacet
 facet normal 0 0 -1
  outer loop
    vertex 49.5 -29.25 0.000100136
    vertex 49.5 -21.25 0.000100136
    vertex 52.5 36.75 0.000100136
  endloop
 endfacet
 facet normal 0 0 -1
  outer loop
    vertex 49.5 21.25 0.000100136
    vertex -49.5 -21.25 0.000100136
    vertex -49.5 21.25 0.000100136
  endloop
 endfacet
 facet normal 0 0 -1
  outer loop
    vertex -49.5 21.25 0.000100136
    vertex -49.5 -21.25 0.000100136
    vertex -52.5 36.75 0.000100136
  endloop
 endfacet
 facet normal 0 0 -1
  outer loop
    vertex -49.5 29.25 0.000100136
    vertex -49.5 21.25 0.000100136
    vertex -52.5 36.75 0.000100136
  endloop
 endfacet
 facet normal 0 0 -1
  outer loop
    vertex -49.5 29.25 0.000100136
    vertex 52.5 36.75 0.000100136
    vertex 49.5 29.25 0.000100136
  endloop
 endfacet
 facet normal 0 -0 -1
  outer loop
    vertex 49.5 -21.25 0.000100136
    vertex 49.5 21.25 0.000100136
    vertex 52.5 36.75 0.000100136
  endloop
 endfacet
 facet normal 0 0 -1
  outer loop
    vertex -49.5 -21.25 0.000100136
    vertex 49.5 21.25 0.000100136
    vertex 49.5 -21.25 0.000100136
  endloop
 endfacet
 facet normal 0 0 -1
  outer loop
    vertex 49.5 21.25 0.000100136
    vertex 49.5 29.25 0.000100136
    vertex 52.5 36.75 0.000100136
  endloop
 endfacet
 facet normal 0 0 -1
  outer loop
    vertex 52.5 36.75 0.000100136
    vertex -49.5 29.25 0.000100136
    vertex -52.5 36.75 0.000100136
  endloop
 endfacet
 facet normal 0 0 -1
  outer loop
    vertex 49.5 -29.25 0.000100136
    vertex -52.5 -36.75 0.000100136
    vertex -49.5 -29.25 0.000100136
  endloop
 endfacet
 facet normal -1 5.19006e-008 0
  outer loop
    vertex -52.5 -36.75 0.000100136
    vertex -52.5 -36.75 12.0001
    vertex -52.5 36.75 0.000100136
  endloop
 endfacet
 facet normal -1 1.2207e-007 0
  outer loop
    vertex -52.5 -5.5 10.5001
    vertex -52.5 -36.75 12.0001
    vertex -52.5 -5.5 12.0001
  endloop
 endfacet
 facet normal -1 1.51291e-007 6.08767e-007
  outer loop
    vertex -52.5 36.75 0.000100136
    vertex -52.5 -36.75 12.0001
    vertex -52.5 -5.5 10.5001
  endloop
 endfacet
 facet normal -1 0 0
  outer loop
    vertex -52.5 36.75 0.000100136
    vertex -52.5 5.5 10.5001
    vertex -52.5 5.5 12.0001
  endloop
 endfacet
 facet normal -1 0 0
  outer loop
    vertex -52.5 36.75 0.000100136
    vertex -52.5 5.5 12.0001
    vertex -52.5 36.75 12.0001
  endloop
 endfacet
 facet normal -1 0 0
  outer loop
    vertex -52.5 5.5 10.5001
    vertex -52.5 36.75 0.000100136
    vertex -52.5 -5.5 10.5001
  endloop
 endfacet
 facet normal 0 0 1
  outer loop
    vertex -49.5 -33.75 12.0001
    vertex -52.5 -36.75 12.0001
    vertex 49.5 -33.75 12.0001
  endloop
 endfacet
 facet normal -0 0 1
  outer loop
    vertex 52.5 -1.25 12.0001
    vertex 49.5 -1.25 12.0001
    vertex 49.5 -33.75 12.0001
  endloop
 endfacet
 facet normal -0 0 1
  outer loop
    vertex -49.5 -5.5 12.0001
    vertex -52.5 -5.5 12.0001
    vertex -49.5 -33.75 12.0001
  endloop
 endfacet
 facet normal 0 0 1
  outer loop
    vertex 52.5 -36.75 12.0001
    vertex 52.5 -1.25 12.0001
    vertex 49.5 -33.75 12.0001
  endloop
 endfacet
 facet normal 0 0 1
  outer loop
    vertex -52.5 -5.5 12.0001
    vertex -52.5 -36.75 12.0001
    vertex -49.5 -33.75 12.0001
  endloop
 endfacet
 facet normal 0 0 1
  outer loop
    vertex -52.5 -36.75 12.0001
    vertex 52.5 -36.75 12.0001
    vertex 49.5 -33.75 12.0001
  endloop
 endfacet
 facet normal -0 1 0
  outer loop
    vertex 49.5 -1.25 10.5001
    vertex 49.5 -1.25 12.0001
    vertex 52.5 -1.25 12.0001
  endloop
 endfacet
 facet normal 0 1 0
  outer loop
    vertex 52.5 -1.25 10.5001
    vertex 49.5 -1.25 10.5001
    vertex 52.5 -1.25 12.0001
  endloop
 endfacet
 facet normal -0 0 1
  outer loop
    vertex 52.5 9.75 10.5001
    vertex 49.5 9.75 10.5001
    vertex 49.5 -1.25 10.5001
  endloop
 endfacet
 facet normal 0 0 1
  outer loop
    vertex 52.5 -1.25 10.5001
    vertex 52.5 9.75 10.5001
    vertex 49.5 -1.25 10.5001
  endloop
 endfacet
 facet normal 0 -1 0
  outer loop
    vertex 49.5 9.75 12.0001
    vertex 49.5 9.75 10.5001
    vertex 52.5 9.75 12.0001
  endloop
 endfacet
 facet normal 0 -1 0
  outer loop
    vertex 52.5 9.75 12.0001
    vertex 49.5 9.75 10.5001
    vertex 52.5 9.75 10.5001
  endloop
 endfacet
 facet normal 0 0 1
  outer loop
    vertex 52.5 9.75 12.0001
    vertex 49.5 33.75 12.0001
    vertex 49.5 9.75 12.0001
  endloop
 endfacet
 facet normal -0 0 1
  outer loop
    vertex 52.5 36.75 12.0001
    vertex 49.5 33.75 12.0001
    vertex 52.5 9.75 12.0001
  endloop
 endfacet
 facet normal 0 -0 1
  outer loop
    vertex -49.5 33.75 12.0001
    vertex 49.5 33.75 12.0001
    vertex 52.5 36.75 12.0001
  endloop
 endfacet
 facet normal 0 -0 1
  outer loop
    vertex -52.5 36.75 12.0001
    vertex -49.5 33.75 12.0001
    vertex 52.5 36.75 12.0001
  endloop
 endfacet
 facet normal 0 0 1
  outer loop
    vertex -52.5 5.5 12.0001
    vertex -49.5 33.75 12.0001
    vertex -52.5 36.75 12.0001
  endloop
 endfacet
 facet normal 0 0 1
  outer loop
    vertex -49.5 5.5 12.0001
    vertex -49.5 33.75 12.0001
    vertex -52.5 5.5 12.0001
  endloop
 endfacet
 facet normal 3.63305e-008 1 -0
  outer loop
    vertex 52.5 36.75 12.0001
    vertex 52.5 36.75 0.000100136
    vertex -52.5 36.75 0.000100136
  endloop
 endfacet
 facet normal 3.63305e-008 1 0
  outer loop
    vertex -52.5 36.75 12.0001
    vertex 52.5 36.75 12.0001
    vertex -52.5 36.75 0.000100136
  endloop
 endfacet
 facet normal 1 0 0
  outer loop
    vertex -49.5 -29.25 10.0001
    vertex -49.5 -29.25 0.000100136
    vertex -49.5 -21.25 0.000100136
  endloop
 endfacet
 facet normal 1 -0 0
  outer loop
    vertex -49.5 -21.25 10.0001
    vertex -49.5 -29.25 10.0001
    vertex -49.5 -21.25 0.000100136
  endloop
 endfacet
 facet normal 1 -0 0
  outer loop
    vertex -49.5 5.5 10.5001
    vertex -49.5 -5.5 10.5001
    vertex -49.5 -10 10.0001
  endloop
 endfacet
 facet normal 1 -3.39084e-007 3.05176e-006
  outer loop
    vertex -49.5 -5.5 10.5001
    vertex -49.5 -21.25 10.0001
    vertex -49.5 -10 10.0001
  endloop
 endfacet
 facet normal 1 0 0
  outer loop
    vertex -49.5 10 0.7001
    vertex -49.5 -10 10.0001
    vertex -49.5 -10 0.7001
  endloop
 endfacet
 facet normal 1 -0 0
  outer loop
    vertex -49.5 10 10.0001
    vertex -49.5 -10 10.0001
    vertex -49.5 10 0.7001
  endloop
 endfacet
 facet normal 1 0 0
  outer loop
    vertex -49.5 5.5 10.5001
    vertex -49.5 -10 10.0001
    vertex -49.5 10 10.0001
  endloop
 endfacet
 facet normal 1 0 0
  outer loop
    vertex -49.5 33.75 12.0001
    vertex -49.5 10 10.0001
    vertex -49.5 21.25 10.0001
  endloop
 endfacet
 facet normal 1 0 0
  outer loop
    vertex -49.5 29.25 0.000100136
    vertex -49.5 21.25 10.0001
    vertex -49.5 21.25 0.000100136
  endloop
 endfacet
 facet normal 1 -0 0
  outer loop
    vertex -49.5 29.25 10.0001
    vertex -49.5 21.25 10.0001
    vertex -49.5 29.25 0.000100136
  endloop
 endfacet
 facet normal 1 0 0
  outer loop
    vertex -49.5 33.75 12.0001
    vertex -49.5 21.25 10.0001
    vertex -49.5 29.25 10.0001
  endloop
 endfacet
 facet normal 1 0 0
  outer loop
    vertex -49.5 33.75 12.0001
    vertex -49.5 29.25 10.0001
    vertex -49.5 33.75 10.0001
  endloop
 endfacet
 facet normal 1 -0 0
  outer loop
    vertex -49.5 33.75 12.0001
    vertex -49.5 5.5 10.5001
    vertex -49.5 10 10.0001
  endloop
 endfacet
 facet normal 1 -1.60619e-007 0
  outer loop
    vertex -49.5 -5.5 10.5001
    vertex -49.5 -5.5 12.0001
    vertex -49.5 -29.25 10.0001
  endloop
 endfacet
 facet normal 1 -1.35034e-007 -3.03825e-007
  outer loop
    vertex -49.5 -33.75 12.0001
    vertex -49.5 -29.25 10.0001
    vertex -49.5 -5.5 12.0001
  endloop
 endfacet
 facet normal 1 0 -7.62939e-006
  outer loop
    vertex -49.5 -5.5 10.5001
    vertex -49.5 -29.25 10.0001
    vertex -49.5 -21.25 10.0001
  endloop
 endfacet
 facet normal 1 0 0
  outer loop
    vertex -49.5 -33.75 10.0001
    vertex -49.5 -29.25 10.0001
    vertex -49.5 -33.75 12.0001
  endloop
 endfacet
 facet normal 1 0 0
  outer loop
    vertex -49.5 5.5 12.0001
    vertex -49.5 5.5 10.5001
    vertex -49.5 33.75 12.0001
  endloop
 endfacet
 facet normal 3.85323e-008 1 0
  outer loop
    vertex -49.5 -29.25 0.000100136
    vertex -49.5 -29.25 10.0001
    vertex 49.5 -29.25 10.0001
  endloop
 endfacet
 facet normal 3.85323e-008 1 0
  outer loop
    vertex 49.5 -29.25 0.000100136
    vertex -49.5 -29.25 0.000100136
    vertex 49.5 -29.25 10.0001
  endloop
 endfacet
 facet normal -3.85323e-008 -1 0
  outer loop
    vertex -49.5 -21.25 10.0001
    vertex -49.5 -21.25 0.000100136
    vertex 49.5 -21.25 10.0001
  endloop
 endfacet
 facet normal -3.85323e-008 -1 0
  outer loop
    vertex 49.5 -21.25 10.0001
    vertex -49.5 -21.25 0.000100136
    vertex 49.5 -21.25 0.000100136
  endloop
 endfacet
 facet normal -1 0 0
  outer loop
    vertex 49.5 -1.25 12.0001
    vertex 49.5 -1.25 10.5001
    vertex 49.5 -33.75 12.0001
  endloop
 endfacet
 facet normal -1 0 -7.62939e-006
  outer loop
    vertex 49.5 29.25 10.0001
    vertex 49.5 -1.25 10.5001
    vertex 49.5 33.75 10.0001
  endloop
 endfacet
 facet normal -1 1.58946e-007 0
  outer loop
    vertex 49.5 33.75 12.0001
    vertex 49.5 9.75 10.5001
    vertex 49.5 9.75 12.0001
  endloop
 endfacet
 facet normal -1 1.58946e-007 0
  outer loop
    vertex 49.5 33.75 10.0001
    vertex 49.5 9.75 10.5001
    vertex 49.5 33.75 12.0001
  endloop
 endfacet
 facet normal -1 -0 -7.62939e-006
  outer loop
    vertex 49.5 -1.25 10.5001
    vertex 49.5 9.75 10.5001
    vertex 49.5 33.75 10.0001
  endloop
 endfacet
 facet normal -1 -0 -0
  outer loop
    vertex 49.5 21.25 10.0001
    vertex 49.5 29.25 10.0001
    vertex 49.5 29.25 0.000100136
  endloop
 endfacet
 facet normal -1 -0 -7.62939e-006
  outer loop
    vertex 49.5 -1.25 10.5001
    vertex 49.5 29.25 10.0001
    vertex 49.5 21.25 10.0001
  endloop
 endfacet
 facet normal -1 1.8838e-007 0
  outer loop
    vertex 49.5 19 0.7001
    vertex 49.5 -1.25 10.5001
    vertex 49.5 19 10.0001
  endloop
 endfacet
 facet normal -1 -0 -7.62939e-006
  outer loop
    vertex 49.5 -1.25 10.5001
    vertex 49.5 21.25 10.0001
    vertex 49.5 19 10.0001
  endloop
 endfacet
 facet normal -1 1.00387e-007 0
  outer loop
    vertex 49.5 -19 10.0001
    vertex 49.5 19 0.7001
    vertex 49.5 -19 0.7001
  endloop
 endfacet
 facet normal -1 -0 0
  outer loop
    vertex 49.5 -33.75 12.0001
    vertex 49.5 -1.25 10.5001
    vertex 49.5 -19 10.0001
  endloop
 endfacet
 facet normal -1 0 0
  outer loop
    vertex 49.5 -33.75 12.0001
    vertex 49.5 -19 10.0001
    vertex 49.5 -21.25 10.0001
  endloop
 endfacet
 facet normal -1 0 0
  outer loop
    vertex 49.5 -29.25 10.0001
    vertex 49.5 -21.25 0.000100136
    vertex 49.5 -29.25 0.000100136
  endloop
 endfacet
 facet normal -1 0 0
  outer loop
    vertex 49.5 -29.25 10.0001
    vertex 49.5 -33.75 12.0001
    vertex 49.5 -21.25 10.0001
  endloop
 endfacet
 facet normal -1 0 0
  outer loop
    vertex 49.5 21.25 10.0001
    vertex 49.5 29.25 0.000100136
    vertex 49.5 21.25 0.000100136
  endloop
 endfacet
 facet normal -1 0 0
  outer loop
    vertex 49.5 -21.25 0.000100136
    vertex 49.5 -29.25 10.0001
    vertex 49.5 -21.25 10.0001
  endloop
 endfacet
 facet normal -1 0 0
  outer loop
    vertex 49.5 -33.75 10.0001
    vertex 49.5 -33.75 12.0001
    vertex 49.5 -29.25 10.0001
  endloop
 endfacet
 facet normal -1 1.03618e-008 -3.67844e-007
  outer loop
    vertex 49.5 19 0.7001
    vertex 49.5 -19 10.0001
    vertex 49.5 -1.25 10.5001
  endloop
 endfacet
 facet normal 3.85323e-008 1 0
  outer loop
    vertex -49.5 21.25 0.000100136
    vertex -49.5 21.25 10.0001
    vertex 49.5 21.25 10.0001
  endloop
 endfacet
 facet normal 3.85323e-008 1 0
  outer loop
    vertex 49.5 21.25 0.000100136
    vertex -49.5 21.25 0.000100136
    vertex 49.5 21.25 10.0001
  endloop
 endfacet
 facet normal -3.85323e-008 -1 0
  outer loop
    vertex -49.5 29.25 10.0001
    vertex -49.5 29.25 0.000100136
    vertex 49.5 29.25 10.0001
  endloop
 endfacet
 facet normal -3.85323e-008 -1 0
  outer loop
    vertex 49.5 29.25 10.0001
    vertex -49.5 29.25 0.000100136
    vertex 49.5 29.25 0.000100136
  endloop
 endfacet
 facet normal 0 -1 0
  outer loop
    vertex -52.5 5.5 12.0001
    vertex -52.5 5.5 10.5001
    vertex -49.5 5.5 12.0001
  endloop
 endfacet
 facet normal 0 -1 0
  outer loop
    vertex -49.5 5.5 12.0001
    vertex -52.5 5.5 10.5001
    vertex -49.5 5.5 10.5001
  endloop
 endfacet
 facet normal -0 0 1
  outer loop
    vertex -49.5 5.5 10.5001
    vertex -52.5 5.5 10.5001
    vertex -52.5 -5.5 10.5001
  endloop
 endfacet
 facet normal 0 0 1
  outer loop
    vertex -49.5 -5.5 10.5001
    vertex -49.5 5.5 10.5001
    vertex -52.5 -5.5 10.5001
  endloop
 endfacet
 facet normal -0 1 0
  outer loop
    vertex -52.5 -5.5 10.5001
    vertex -52.5 -5.5 12.0001
    vertex -49.5 -5.5 12.0001
  endloop
 endfacet
 facet normal 0 1 0
  outer loop
    vertex -49.5 -5.5 10.5001
    vertex -52.5 -5.5 10.5001
    vertex -49.5 -5.5 12.0001
  endloop
 endfacet
 facet normal 3.85323e-008 1 0
  outer loop
    vertex -49.5 -33.75 10.0001
    vertex -49.5 -33.75 12.0001
    vertex 49.5 -33.75 12.0001
  endloop
 endfacet
 facet normal 3.85323e-008 1 0
  outer loop
    vertex 49.5 -33.75 10.0001
    vertex -49.5 -33.75 10.0001
    vertex 49.5 -33.75 12.0001
  endloop
 endfacet
 facet normal -3.85323e-008 -1 0
  outer loop
    vertex -49.5 33.75 12.0001
    vertex -49.5 33.75 10.0001
    vertex 49.5 33.75 12.0001
  endloop
 endfacet
 facet normal -3.85323e-008 -1 0
  outer loop
    vertex 49.5 33.75 12.0001
    vertex -49.5 33.75 10.0001
    vertex 49.5 33.75 10.0001
  endloop
 endfacet
 facet normal 0 0 1
  outer loop
    vertex 49.5 -29.25 10.0001
    vertex -49.5 -29.25 10.0001
    vertex -49.5 -33.75 10.0001
  endloop
 endfacet
 facet normal 0 0 1
  outer loop
    vertex 49.5 -33.75 10.0001
    vertex 49.5 -29.25 10.0001
    vertex -49.5 -33.75 10.0001
  endloop
 endfacet
 facet normal 0 0 1
  outer loop
    vertex 49.5 33.75 10.0001
    vertex -49.5 33.75 10.0001
    vertex -49.5 29.25 10.0001
  endloop
 endfacet
 facet normal 0 0 1
  outer loop
    vertex 49.5 29.25 10.0001
    vertex 49.5 33.75 10.0001
    vertex -49.5 29.25 10.0001
  endloop
 endfacet
 facet normal 0 -0 1
  outer loop
    vertex -46.5 19 10.0001
    vertex 49.5 19 10.0001
    vertex 49.5 21.25 10.0001
  endloop
 endfacet
 facet normal 0 0 1
  outer loop
    vertex -49.5 10 10.0001
    vertex -46.5 19 10.0001
    vertex -49.5 21.25 10.0001
  endloop
 endfacet
 facet normal 0 -0 1
  outer loop
    vertex -49.5 21.25 10.0001
    vertex -46.5 19 10.0001
    vertex 49.5 21.25 10.0001
  endloop
 endfacet
 facet normal 0 0 1
  outer loop
    vertex -46.5 10 10.0001
    vertex -46.5 19 10.0001
    vertex -49.5 10 10.0001
  endloop
 endfacet
 facet normal 0 -1 0
  outer loop
    vertex -49.5 10 10.0001
    vertex -49.5 10 0.7001
    vertex -46.5 10 10.0001
  endloop
 endfacet
 facet normal 0 -1 0
  outer loop
    vertex -46.5 10 10.0001
    vertex -49.5 10 0.7001
    vertex -46.5 10 0.7001
  endloop
 endfacet
 facet normal 0 0 1
  outer loop
    vertex -46.5 -10 0.7001
    vertex -46.5 -19 0.7001
    vertex 49.5 19 0.7001
  endloop
 endfacet
 facet normal 0 0 1
  outer loop
    vertex 49.5 19 0.7001
    vertex -46.5 19 0.7001
    vertex -46.5 10 0.7001
  endloop
 endfacet
 facet normal 0 0 1
  outer loop
    vertex -49.5 -10 0.7001
    vertex 49.5 19 0.7001
    vertex -46.5 10 0.7001
  endloop
 endfacet
 facet normal 0 0 1
  outer loop
    vertex -49.5 10 0.7001
    vertex -49.5 -10 0.7001
    vertex -46.5 10 0.7001
  endloop
 endfacet
 facet normal 0 -0 1
  outer loop
    vertex -49.5 -10 0.7001
    vertex -46.5 -10 0.7001
    vertex 49.5 19 0.7001
  endloop
 endfacet
 facet normal 0 -0 1
  outer loop
    vertex -46.5 -19 0.7001
    vertex 49.5 -19 0.7001
    vertex 49.5 19 0.7001
  endloop
 endfacet
 facet normal -0 1 0
  outer loop
    vertex -49.5 -10 0.7001
    vertex -49.5 -10 10.0001
    vertex -46.5 -10 10.0001
  endloop
 endfacet
 facet normal 0 1 0
  outer loop
    vertex -46.5 -10 0.7001
    vertex -49.5 -10 0.7001
    vertex -46.5 -10 10.0001
  endloop
 endfacet
 facet normal 0 -0 1
  outer loop
    vertex -49.5 -10 10.0001
    vertex -46.5 -19 10.0001
    vertex -46.5 -10 10.0001
  endloop
 endfacet
 facet normal 0 0 1
  outer loop
    vertex -49.5 -21.25 10.0001
    vertex -46.5 -19 10.0001
    vertex -49.5 -10 10.0001
  endloop
 endfacet
 facet normal 0 0 1
  outer loop
    vertex 49.5 -19 10.0001
    vertex -46.5 -19 10.0001
    vertex -49.5 -21.25 10.0001
  endloop
 endfacet
 facet normal 0 0 1
  outer loop
    vertex 49.5 -21.25 10.0001
    vertex 49.5 -19 10.0001
    vertex -49.5 -21.25 10.0001
  endloop
 endfacet
 facet normal 1.98682e-008 1 0
  outer loop
    vertex -46.5 -19 0.7001
    vertex -46.5 -19 10.0001
    vertex 49.5 -19 10.0001
  endloop
 endfacet
 facet normal 1.98682e-008 1 0
  outer loop
    vertex 49.5 -19 0.7001
    vertex -46.5 -19 0.7001
    vertex 49.5 -19 10.0001
  endloop
 endfacet
 facet normal -1.98682e-008 -1 0
  outer loop
    vertex -46.5 19 10.0001
    vertex -46.5 19 0.7001
    vertex 49.5 19 10.0001
  endloop
 endfacet
 facet normal -1.98682e-008 -1 0
  outer loop
    vertex 49.5 19 10.0001
    vertex -46.5 19 0.7001
    vertex 49.5 19 0.7001
  endloop
 endfacet
 facet normal 1 0 0
  outer loop
    vertex -46.5 19 0.7001
    vertex -46.5 19 10.0001
    vertex -46.5 10 10.0001
  endloop
 endfacet
 facet normal 1 0 0
  outer loop
    vertex -46.5 10 0.7001
    vertex -46.5 19 0.7001
    vertex -46.5 10 10.0001
  endloop
 endfacet
 facet normal 1 -4.23855e-007 0
  outer loop
    vertex -46.5 -10 0.7001
    vertex -46.5 -10 10.0001
    vertex -46.5 -19 10.0001
  endloop
 endfacet
 facet normal 1 -4.23855e-007 0
  outer loop
    vertex -46.5 -19 0.7001
    vertex -46.5 -10 0.7001
    vertex -46.5 -19 10.0001
  endloop
 endfacet
endsolid solidname
