solid solidname
 facet normal 1.75793e-007 1 -0
  outer loop
    vertex 54.25 38.5 26
    vertex 54.25 38.5 1.54657e-006
    vertex -54.25 38.5 26
  endloop
 endfacet
 facet normal 1.75793e-007 1 0
  outer loop
    vertex -54.25 38.5 26
    vertex 54.25 38.5 1.54657e-006
    vertex -54.25 38.5 1.54657e-006
  endloop
 endfacet
 facet normal 1 1.48625e-007 -4.00179e-009
  outer loop
    vertex 54.25 12.4777 12.7919
    vertex 54.25 38.5 26
    vertex 54.25 -38.5 26
  endloop
 endfacet
 facet normal 1 1.93149e-007 0
  outer loop
    vertex 54.25 38.5 1.54657e-006
    vertex 54.25 38.5 26
    vertex 54.25 18.75 9.5
  endloop
 endfacet
 facet normal 1 1.86834e-007 -2.26784e-008
  outer loop
    vertex 54.25 18.6338 4.5427
    vertex 54.25 38.5 1.54657e-006
    vertex 54.25 18.75 5.5
  endloop
 endfacet
 facet normal 1 0 0
  outer loop
    vertex 54.25 11.2082 11.3589
    vertex 54.25 12.4777 12.7919
    vertex 54.25 1.24999 15.5
  endloop
 endfacet
 facet normal 1 1.3432e-007 3.54189e-007
  outer loop
    vertex 54.25 14.2679 1.5292
    vertex 54.25 12.4777 2.2081
    vertex 54.25 -38.5 -3.54482e-007
  endloop
 endfacet
 facet normal 1 1.71442e-007 -8.99891e-008
  outer loop
    vertex 54.25 17.744 2.8475
    vertex 54.25 38.5 1.54657e-006
    vertex 54.25 18.6338 4.5427
  endloop
 endfacet
 facet normal 1 1.53317e-007 -2.22109e-007
  outer loop
    vertex 54.25 16.1684 1.7599
    vertex 54.25 38.5 1.54657e-006
    vertex 54.25 17.744 2.8475
  endloop
 endfacet
 facet normal 1 1.03577e-007 -8.53262e-007
  outer loop
    vertex 54.25 14.2679 1.5292
    vertex 54.25 38.5 1.54657e-006
    vertex 54.25 16.1684 1.7599
  endloop
 endfacet
 facet normal 1 1.44131e-007 1.27686e-007
  outer loop
    vertex 54.25 12.4777 2.2081
    vertex 54.25 11.2082 3.6411
    vertex 54.25 -38.5 -3.54482e-007
  endloop
 endfacet
 facet normal 1 1.48625e-007 -1.39427e-007
  outer loop
    vertex 54.25 -38.5 -3.54482e-007
    vertex 54.25 38.5 1.54657e-006
    vertex 54.25 14.2679 1.5292
  endloop
 endfacet
 facet normal 1 0 -0
  outer loop
    vertex 54.25 1.24999 15.5
    vertex 54.25 10.75 5.5
    vertex 54.25 10.75 9.5
  endloop
 endfacet
 facet normal 1 0 0
  outer loop
    vertex 54.25 18.6338 5.5
    vertex 54.25 18.6338 4.5427
    vertex 54.25 18.75 5.5
  endloop
 endfacet
 facet normal 1 0 -0
  outer loop
    vertex 54.25 1.24999 15.5
    vertex 54.25 10.75 9.5
    vertex 54.25 11.2082 11.3589
  endloop
 endfacet
 facet normal 1 -2.01667e-006 -8.36116e-006
  outer loop
    vertex 54.25 1.24999 15.5
    vertex 54.25 12.4777 12.7919
    vertex 54.25 -38.5 26
  endloop
 endfacet
 facet normal 1 -4.33181e-007 1.14226e-006
  outer loop
    vertex 54.25 14.2679 13.4708
    vertex 54.25 38.5 26
    vertex 54.25 12.4777 12.7919
  endloop
 endfacet
 facet normal 1 3.46791e-007 5.86242e-007
  outer loop
    vertex 54.25 -9.75001 15.5
    vertex 54.25 1.24999 15.5
    vertex 54.25 -38.5 26
  endloop
 endfacet
 facet normal 1 2.9939e-008 2.46562e-007
  outer loop
    vertex 54.25 16.1684 13.2401
    vertex 54.25 38.5 26
    vertex 54.25 14.2679 13.4708
  endloop
 endfacet
 facet normal 1 -0 -0
  outer loop
    vertex 54.25 1.24999 15.5
    vertex 54.25 1.24999 8.5
    vertex 54.25 10.75 5.5
  endloop
 endfacet
 facet normal 1 9.34577e-008 1.35395e-007
  outer loop
    vertex 54.25 17.744 12.1525
    vertex 54.25 38.5 26
    vertex 54.25 16.1684 13.2401
  endloop
 endfacet
 facet normal 1 1.36121e-007 7.14478e-008
  outer loop
    vertex 54.25 18.6338 10.4573
    vertex 54.25 38.5 26
    vertex 54.25 17.744 12.1525
  endloop
 endfacet
 facet normal 1 1.75365e-007 2.12872e-008
  outer loop
    vertex 54.25 18.75 9.5
    vertex 54.25 38.5 26
    vertex 54.25 18.6338 10.4573
  endloop
 endfacet
 facet normal 1 1.50762e-007 3.71613e-008
  outer loop
    vertex 54.25 11.2082 3.6411
    vertex 54.25 10.75 5.5
    vertex 54.25 -38.5 -3.54482e-007
  endloop
 endfacet
 facet normal 1 1.14441e-007 3.62396e-007
  outer loop
    vertex 54.25 -38.5 -3.54482e-007
    vertex 54.25 10.75 5.5
    vertex 54.25 1.24999 8.5
  endloop
 endfacet
 facet normal 1 1.32685e-007 0
  outer loop
    vertex 54.25 -38.5 -3.54482e-007
    vertex 54.25 -9.75001 8.5
    vertex 54.25 -38.5 26
  endloop
 endfacet
 facet normal 1 3.46791e-007 -7.24181e-007
  outer loop
    vertex 54.25 -38.5 -3.54482e-007
    vertex 54.25 1.24999 8.5
    vertex 54.25 -9.75001 8.5
  endloop
 endfacet
 facet normal 1 1.32685e-007 1.80769e-014
  outer loop
    vertex 54.25 -9.75001 8.5
    vertex 54.25 -9.75001 15.5
    vertex 54.25 -38.5 26
  endloop
 endfacet
 facet normal 1 1.93149e-007 -0
  outer loop
    vertex 54.25 18.75 9.5
    vertex 54.25 18.75 5.5
    vertex 54.25 38.5 1.54657e-006
  endloop
 endfacet
 facet normal 1 0 0
  outer loop
    vertex 54.25 18.6338 10.4573
    vertex 54.25 18.6338 9.5
    vertex 54.25 18.75 9.5
  endloop
 endfacet
 facet normal -2.47708e-008 -2.47708e-008 1
  outer loop
    vertex -52.85 37.1 26
    vertex -54.25 38.5 26
    vertex -54.25 -38.5 26
  endloop
 endfacet
 facet normal 2.57055e-008 -2.57055e-008 1
  outer loop
    vertex -52.85 -37.1 26
    vertex -52.85 37.1 26
    vertex -54.25 -38.5 26
  endloop
 endfacet
 facet normal 0 0 1
  outer loop
    vertex 54.25 38.5 26
    vertex -54.25 38.5 26
    vertex 52.85 37.1 26
  endloop
 endfacet
 facet normal 2.47708e-008 -2.47708e-008 1
  outer loop
    vertex 54.25 38.5 26
    vertex 52.85 37.1 26
    vertex 54.25 -38.5 26
  endloop
 endfacet
 facet normal 0 0 1
  outer loop
    vertex -52.85 -37.1 26
    vertex 54.25 -38.5 26
    vertex 52.85 -37.1 26
  endloop
 endfacet
 facet normal -2.57055e-008 -2.57055e-008 1
  outer loop
    vertex 52.85 37.1 26
    vertex 52.85 -37.1 26
    vertex 54.25 -38.5 26
  endloop
 endfacet
 facet normal 0 0 1
  outer loop
    vertex 54.25 -38.5 26
    vertex -52.85 -37.1 26
    vertex -54.25 -38.5 26
  endloop
 endfacet
 facet normal 0 0 1
  outer loop
    vertex 52.85 37.1 26
    vertex -54.25 38.5 26
    vertex -52.85 37.1 26
  endloop
 endfacet
 facet normal -1 -1.48625e-007 -1.28225e-007
  outer loop
    vertex -54.25 5.50001 8.5
    vertex -54.25 38.5 1.54657e-006
    vertex -54.25 -38.5 -3.54482e-007
  endloop
 endfacet
 facet normal -1 -3.46791e-007 8.97576e-007
  outer loop
    vertex -54.25 -5.49999 8.5
    vertex -54.25 5.50001 8.5
    vertex -54.25 -38.5 -3.54482e-007
  endloop
 endfacet
 facet normal -1 -1.15597e-007 0
  outer loop
    vertex -54.25 38.5 26
    vertex -54.25 38.5 1.54657e-006
    vertex -54.25 5.50001 15.5
  endloop
 endfacet
 facet normal -1 -1.48625e-007 1.03801e-007
  outer loop
    vertex -54.25 38.5 26
    vertex -54.25 5.50001 15.5
    vertex -54.25 -38.5 26
  endloop
 endfacet
 facet normal -1 -1.15597e-007 0
  outer loop
    vertex -54.25 -5.49999 8.5
    vertex -54.25 -38.5 26
    vertex -54.25 -5.49999 15.5
  endloop
 endfacet
 facet normal -1 -3.46791e-007 -7.26609e-007
  outer loop
    vertex -54.25 5.50001 15.5
    vertex -54.25 -5.49999 15.5
    vertex -54.25 -38.5 26
  endloop
 endfacet
 facet normal -1 -1.15597e-007 0
  outer loop
    vertex -54.25 -38.5 26
    vertex -54.25 -5.49999 8.5
    vertex -54.25 -38.5 -3.54482e-007
  endloop
 endfacet
 facet normal -1 -1.15597e-007 0
  outer loop
    vertex -54.25 5.50001 15.5
    vertex -54.25 38.5 1.54657e-006
    vertex -54.25 5.50001 8.5
  endloop
 endfacet
 facet normal 1.37756e-014 2.46891e-008 -1
  outer loop
    vertex 49.5 19.5 1.07748e-006
    vertex 54.25 38.5 1.54657e-006
    vertex 54.25 -38.5 -3.54482e-007
  endloop
 endfacet
 facet normal 8.93444e-016 2.46891e-008 -1
  outer loop
    vertex 49.5 -19.5 1.1461e-007
    vertex 49.5 19.5 1.07748e-006
    vertex 54.25 -38.5 -3.54482e-007
  endloop
 endfacet
 facet normal 4.34015e-015 2.46891e-008 -1
  outer loop
    vertex -54.25 38.5 1.54657e-006
    vertex 54.25 38.5 1.54657e-006
    vertex 49.5 19.5 1.07748e-006
  endloop
 endfacet
 facet normal -3.86181e-015 2.46891e-008 -1
  outer loop
    vertex -54.25 -38.5 -3.54482e-007
    vertex -54.25 38.5 1.54657e-006
    vertex -49.5 19.5 1.07748e-006
  endloop
 endfacet
 facet normal 4.34015e-015 2.46891e-008 -1
  outer loop
    vertex -54.25 -38.5 -3.54482e-007
    vertex -49.5 -19.5 1.1461e-007
    vertex 54.25 -38.5 -3.54482e-007
  endloop
 endfacet
 facet normal -7.94789e-015 2.46891e-008 -1
  outer loop
    vertex -54.25 -38.5 -3.54482e-007
    vertex -49.5 19.5 1.07748e-006
    vertex -49.5 -19.5 1.1461e-007
  endloop
 endfacet
 facet normal 4.8284e-015 2.46891e-008 -1
  outer loop
    vertex -49.5 -19.5 1.1461e-007
    vertex 49.5 -19.5 1.1461e-007
    vertex 54.25 -38.5 -3.54482e-007
  endloop
 endfacet
 facet normal 4.28097e-015 2.46891e-008 -1
  outer loop
    vertex 49.5 19.5 1.07748e-006
    vertex -49.5 19.5 1.07748e-006
    vertex -54.25 38.5 1.54657e-006
  endloop
 endfacet
 facet normal -1.75793e-007 -1 -0
  outer loop
    vertex 54.25 -38.5 -3.54482e-007
    vertex 54.25 -38.5 26
    vertex -54.25 -38.5 26
  endloop
 endfacet
 facet normal -1.75793e-007 -1 0
  outer loop
    vertex -54.25 -38.5 -3.54482e-007
    vertex 54.25 -38.5 -3.54482e-007
    vertex -54.25 -38.5 26
  endloop
 endfacet
 facet normal -4.01547e-007 -1 0
  outer loop
    vertex 49.5 18.75 9.5
    vertex 49.5 18.75 5.5
    vertex 54.25 18.75 5.5
  endloop
 endfacet
 facet normal -4.01547e-007 -1 0
  outer loop
    vertex 54.25 18.75 9.5
    vertex 49.5 18.75 9.5
    vertex 54.25 18.75 5.5
  endloop
 endfacet
 facet normal 0 0 -1
  outer loop
    vertex 54.25 18.6338 9.5
    vertex 49.5 18.6338 9.5
    vertex 49.5 18.75 9.5
  endloop
 endfacet
 facet normal 0 0 -1
  outer loop
    vertex 54.25 18.75 9.5
    vertex 54.25 18.6338 9.5
    vertex 49.5 18.75 9.5
  endloop
 endfacet
 facet normal -4.01547e-007 -1 0
  outer loop
    vertex 49.5 18.6338 10.4573
    vertex 49.5 18.6338 9.5
    vertex 54.25 18.6338 9.5
  endloop
 endfacet
 facet normal -4.01547e-007 -1 0
  outer loop
    vertex 54.25 18.6338 10.4573
    vertex 49.5 18.6338 10.4573
    vertex 54.25 18.6338 9.5
  endloop
 endfacet
 facet normal -3.55546e-007 -0.88544 -0.464754
  outer loop
    vertex 54.25 17.744 12.1525
    vertex 49.5 17.744 12.1525
    vertex 49.5 18.6338 10.4573
  endloop
 endfacet
 facet normal -3.55546e-007 -0.88544 -0.464754
  outer loop
    vertex 54.25 18.6338 10.4573
    vertex 54.25 17.744 12.1525
    vertex 49.5 18.6338 10.4573
  endloop
 endfacet
 facet normal -2.04566e-006 -0.568072 -0.822979
  outer loop
    vertex 54.25 16.1684 13.2401
    vertex 49.5 16.1684 13.2401
    vertex 49.5 17.744 12.1525
  endloop
 endfacet
 facet normal -2.28106e-007 -0.568069 -0.822981
  outer loop
    vertex 54.25 17.744 12.1525
    vertex 54.25 16.1684 13.2401
    vertex 49.5 17.744 12.1525
  endloop
 endfacet
 facet normal -2.42003e-008 -0.120535 -0.992709
  outer loop
    vertex 54.25 14.2679 13.4708
    vertex 49.5 14.2679 13.4708
    vertex 49.5 16.1684 13.2401
  endloop
 endfacet
 facet normal -2.24081e-006 -0.120541 -0.992708
  outer loop
    vertex 54.25 16.1684 13.2401
    vertex 54.25 14.2679 13.4708
    vertex 49.5 16.1684 13.2401
  endloop
 endfacet
 facet normal -1.80609e-006 0.354585 -0.935024
  outer loop
    vertex 54.25 12.4777 12.7919
    vertex 49.5 12.4777 12.7919
    vertex 49.5 14.2679 13.4708
  endloop
 endfacet
 facet normal 7.11922e-008 0.35459 -0.935022
  outer loop
    vertex 54.25 14.2679 13.4708
    vertex 54.25 12.4777 12.7919
    vertex 49.5 14.2679 13.4708
  endloop
 endfacet
 facet normal 0 0.748529 -0.663102
  outer loop
    vertex 49.5 11.2082 11.3589
    vertex 49.5 12.4777 12.7919
    vertex 54.25 11.2082 11.3589
  endloop
 endfacet
 facet normal -1.18105e-006 0.748527 -0.663104
  outer loop
    vertex 54.25 11.2082 11.3589
    vertex 49.5 12.4777 12.7919
    vertex 54.25 12.4777 12.7919
  endloop
 endfacet
 facet normal 1.94939e-007 0.970939 -0.239328
  outer loop
    vertex 49.5 10.75 9.5
    vertex 49.5 11.2082 11.3589
    vertex 54.25 10.75 9.5
  endloop
 endfacet
 facet normal 0 0.970939 -0.239328
  outer loop
    vertex 54.25 10.75 9.5
    vertex 49.5 11.2082 11.3589
    vertex 54.25 11.2082 11.3589
  endloop
 endfacet
 facet normal 2.00774e-007 1 0
  outer loop
    vertex 49.5 10.75 5.5
    vertex 49.5 10.75 9.5
    vertex 54.25 10.75 5.5
  endloop
 endfacet
 facet normal 2.00774e-007 1 0
  outer loop
    vertex 54.25 10.75 5.5
    vertex 49.5 10.75 9.5
    vertex 54.25 10.75 9.5
  endloop
 endfacet
 facet normal 1.94939e-007 0.970939 0.239327
  outer loop
    vertex 49.5 10.75 5.5
    vertex 54.25 10.75 5.5
    vertex 49.5 11.2082 3.6411
  endloop
 endfacet
 facet normal 1.94939e-007 0.970939 0.239327
  outer loop
    vertex 49.5 11.2082 3.6411
    vertex 54.25 10.75 5.5
    vertex 54.25 11.2082 3.6411
  endloop
 endfacet
 facet normal 1.50283e-007 0.748518 0.663115
  outer loop
    vertex 49.5 11.2082 3.6411
    vertex 54.25 11.2082 3.6411
    vertex 49.5 12.4777 2.2081
  endloop
 endfacet
 facet normal 0 0.748518 0.663115
  outer loop
    vertex 49.5 12.4777 2.2081
    vertex 54.25 11.2082 3.6411
    vertex 54.25 12.4777 2.2081
  endloop
 endfacet
 facet normal 0 0.35459 0.935022
  outer loop
    vertex 49.5 12.4777 2.2081
    vertex 54.25 12.4777 2.2081
    vertex 49.5 14.2679 1.5292
  endloop
 endfacet
 facet normal 7.11923e-008 0.35459 0.935022
  outer loop
    vertex 49.5 14.2679 1.5292
    vertex 54.25 12.4777 2.2081
    vertex 54.25 14.2679 1.5292
  endloop
 endfacet
 facet normal -2.41942e-008 -0.120505 0.992713
  outer loop
    vertex 49.5 14.2679 1.5292
    vertex 54.25 14.2679 1.5292
    vertex 49.5 16.1684 1.7599
  endloop
 endfacet
 facet normal -4.83884e-008 -0.120505 0.992713
  outer loop
    vertex 49.5 16.1684 1.7599
    vertex 54.25 14.2679 1.5292
    vertex 54.25 16.1684 1.7599
  endloop
 endfacet
 facet normal -2.28111e-007 -0.568079 0.822974
  outer loop
    vertex 49.5 16.1684 1.7599
    vertex 54.25 16.1684 1.7599
    vertex 49.5 17.744 2.8475
  endloop
 endfacet
 facet normal -2.28111e-007 -0.568079 0.822974
  outer loop
    vertex 49.5 17.744 2.8475
    vertex 54.25 16.1684 1.7599
    vertex 54.25 17.744 2.8475
  endloop
 endfacet
 facet normal -3.55544e-007 -0.885436 0.464761
  outer loop
    vertex 49.5 18.6338 4.5427
    vertex 49.5 17.744 2.8475
    vertex 54.25 17.744 2.8475
  endloop
 endfacet
 facet normal -3.55544e-007 -0.885436 0.464761
  outer loop
    vertex 54.25 18.6338 4.5427
    vertex 49.5 18.6338 4.5427
    vertex 54.25 17.744 2.8475
  endloop
 endfacet
 facet normal -4.01547e-007 -1 0
  outer loop
    vertex 49.5 18.6338 5.5
    vertex 49.5 18.6338 4.5427
    vertex 54.25 18.6338 4.5427
  endloop
 endfacet
 facet normal -4.01547e-007 -1 0
  outer loop
    vertex 54.25 18.6338 5.5
    vertex 49.5 18.6338 5.5
    vertex 54.25 18.6338 4.5427
  endloop
 endfacet
 facet normal 0 0 1
  outer loop
    vertex 49.5 18.6338 5.5
    vertex 54.25 18.6338 5.5
    vertex 49.5 18.75 5.5
  endloop
 endfacet
 facet normal 0 -0 1
  outer loop
    vertex 49.5 18.75 5.5
    vertex 54.25 18.6338 5.5
    vertex 54.25 18.75 5.5
  endloop
 endfacet
 facet normal 0 0 -1
  outer loop
    vertex 54.25 -9.75001 15.5
    vertex 52.85 -9.75001 15.5
    vertex 52.85 1.24999 15.5
  endloop
 endfacet
 facet normal 0 0 -1
  outer loop
    vertex 54.25 1.24999 15.5
    vertex 54.25 -9.75001 15.5
    vertex 52.85 1.24999 15.5
  endloop
 endfacet
 facet normal -1.77925e-007 -1 -2.18733e-008
  outer loop
    vertex 49.5 1.24999 8.5
    vertex 52.85 1.24999 13.95
    vertex 49.5 1.24999 13.95
  endloop
 endfacet
 facet normal -1.75677e-007 -1 -2.32548e-008
  outer loop
    vertex 54.25 1.24999 8.5
    vertex 52.85 1.24999 13.95
    vertex 49.5 1.24999 8.5
  endloop
 endfacet
 facet normal -8.51494e-008 -1 0
  outer loop
    vertex 52.85 1.24999 15.5
    vertex 52.85 1.24999 13.95
    vertex 54.25 1.24999 8.5
  endloop
 endfacet
 facet normal -1.70299e-007 -1 -1.70299e-008
  outer loop
    vertex 54.25 1.24999 15.5
    vertex 52.85 1.24999 15.5
    vertex 54.25 1.24999 8.5
  endloop
 endfacet
 facet normal 0 1 0
  outer loop
    vertex 49.5 -9.75001 8.5
    vertex 49.5 -9.75001 13.95
    vertex 54.25 -9.75001 8.5
  endloop
 endfacet
 facet normal -0 1 0
  outer loop
    vertex 54.25 -9.75001 8.5
    vertex 49.5 -9.75001 13.95
    vertex 52.85 -9.75001 13.95
  endloop
 endfacet
 facet normal -0 1 0
  outer loop
    vertex 54.25 -9.75001 8.5
    vertex 52.85 -9.75001 13.95
    vertex 52.85 -9.75001 15.5
  endloop
 endfacet
 facet normal 6.81195e-007 1 1.36239e-007
  outer loop
    vertex 54.25 -9.75001 8.5
    vertex 52.85 -9.75001 15.5
    vertex 54.25 -9.75001 15.5
  endloop
 endfacet
 facet normal 0 0 1
  outer loop
    vertex 49.5 -9.75001 8.5
    vertex 54.25 -9.75001 8.5
    vertex 49.5 1.24999 8.5
  endloop
 endfacet
 facet normal 0 0 1
  outer loop
    vertex 49.5 1.24999 8.5
    vertex 54.25 -9.75001 8.5
    vertex 54.25 1.24999 8.5
  endloop
 endfacet
 facet normal -1.80449e-007 -1 0
  outer loop
    vertex -52.85 37.1 26
    vertex -52.85 37.1 13.95
    vertex 52.85 37.1 13.95
  endloop
 endfacet
 facet normal -1.80449e-007 -1 0
  outer loop
    vertex 52.85 37.1 26
    vertex -52.85 37.1 26
    vertex 52.85 37.1 13.95
  endloop
 endfacet
 facet normal 1 1.20718e-007 -0
  outer loop
    vertex -52.85 -37.1 26
    vertex -52.85 -37.1 13.95
    vertex -52.85 -5.49999 13.95
  endloop
 endfacet
 facet normal 1 3.46791e-007 6.80371e-007
  outer loop
    vertex -52.85 5.50001 15.5
    vertex -52.85 -37.1 26
    vertex -52.85 -5.49999 15.5
  endloop
 endfacet
 facet normal 1 1.20718e-007 0
  outer loop
    vertex -52.85 -5.49999 15.5
    vertex -52.85 -37.1 26
    vertex -52.85 -5.49999 13.95
  endloop
 endfacet
 facet normal 1 1.06215e-007 -2.9568e-007
  outer loop
    vertex -52.85 37.1 13.95
    vertex -52.85 -37.1 26
    vertex -52.85 5.50001 15.5
  endloop
 endfacet
 facet normal 1 1.20718e-007 0
  outer loop
    vertex -52.85 37.1 13.95
    vertex -52.85 5.50001 15.5
    vertex -52.85 5.50001 13.95
  endloop
 endfacet
 facet normal 1 1.54233e-007 0
  outer loop
    vertex -52.85 37.1 26
    vertex -52.85 -37.1 26
    vertex -52.85 37.1 13.95
  endloop
 endfacet
 facet normal 1.80449e-007 1 0
  outer loop
    vertex -52.85 -37.1 13.95
    vertex -52.85 -37.1 26
    vertex 52.85 -37.1 13.95
  endloop
 endfacet
 facet normal 1.80449e-007 1 0
  outer loop
    vertex 52.85 -37.1 13.95
    vertex -52.85 -37.1 26
    vertex 52.85 -37.1 26
  endloop
 endfacet
 facet normal -1 -1.06407e-007 -0
  outer loop
    vertex 52.85 1.24999 13.95
    vertex 52.85 1.24999 15.5
    vertex 52.85 37.1 13.95
  endloop
 endfacet
 facet normal -1 -8.90547e-008 4.01348e-007
  outer loop
    vertex 52.85 37.1 13.95
    vertex 52.85 1.24999 15.5
    vertex 52.85 -37.1 26
  endloop
 endfacet
 facet normal -1 -1.39477e-007 -0
  outer loop
    vertex 52.85 -37.1 13.95
    vertex 52.85 -9.75001 15.5
    vertex 52.85 -9.75001 13.95
  endloop
 endfacet
 facet normal -1 -1.39477e-007 0
  outer loop
    vertex 52.85 -37.1 26
    vertex 52.85 -9.75001 15.5
    vertex 52.85 -37.1 13.95
  endloop
 endfacet
 facet normal -1 -3.46791e-007 -5.40003e-007
  outer loop
    vertex 52.85 1.24999 15.5
    vertex 52.85 -9.75001 15.5
    vertex 52.85 -37.1 26
  endloop
 endfacet
 facet normal -1 -1.54233e-007 0
  outer loop
    vertex 52.85 37.1 13.95
    vertex 52.85 -37.1 26
    vertex 52.85 37.1 26
  endloop
 endfacet
 facet normal -3.40598e-007 -1 -0
  outer loop
    vertex -52.85 5.50001 13.95
    vertex -52.85 5.50001 15.5
    vertex -54.25 5.50001 15.5
  endloop
 endfacet
 facet normal -2.00774e-007 -1 -3.59182e-008
  outer loop
    vertex -49.5 5.50001 8.5
    vertex -52.85 5.50001 13.95
    vertex -54.25 5.50001 8.5
  endloop
 endfacet
 facet normal -3.40598e-007 -1 0
  outer loop
    vertex -54.25 5.50001 8.5
    vertex -52.85 5.50001 13.95
    vertex -54.25 5.50001 15.5
  endloop
 endfacet
 facet normal -1.4234e-007 -1 0
  outer loop
    vertex -49.5 5.50001 13.95
    vertex -52.85 5.50001 13.95
    vertex -49.5 5.50001 8.5
  endloop
 endfacet
 facet normal -1.74066e-014 -8.66977e-008 1
  outer loop
    vertex -54.25 -5.49999 8.5
    vertex -49.5 -5.49999 8.5
    vertex -54.25 5.50001 8.5
  endloop
 endfacet
 facet normal -1.74066e-014 -8.66977e-008 1
  outer loop
    vertex -54.25 5.50001 8.5
    vertex -49.5 -5.49999 8.5
    vertex -49.5 5.50001 8.5
  endloop
 endfacet
 facet normal 2.00774e-007 1 0
  outer loop
    vertex -54.25 -5.49999 8.5
    vertex -54.25 -5.49999 15.5
    vertex -49.5 -5.49999 8.5
  endloop
 endfacet
 facet normal 3.40598e-007 1 0
  outer loop
    vertex -52.85 -5.49999 13.95
    vertex -54.25 -5.49999 15.5
    vertex -52.85 -5.49999 15.5
  endloop
 endfacet
 facet normal 7.62936e-007 1 3.81467e-007
  outer loop
    vertex -49.5 -5.49999 8.5
    vertex -54.25 -5.49999 15.5
    vertex -52.85 -5.49999 13.95
  endloop
 endfacet
 facet normal 1.4234e-007 1 -0
  outer loop
    vertex -49.5 -5.49999 13.95
    vertex -49.5 -5.49999 8.5
    vertex -52.85 -5.49999 13.95
  endloop
 endfacet
 facet normal 0 0 -1
  outer loop
    vertex -52.85 -5.49999 15.5
    vertex -54.25 -5.49999 15.5
    vertex -54.25 5.50001 15.5
  endloop
 endfacet
 facet normal 0 0 -1
  outer loop
    vertex -52.85 5.50001 15.5
    vertex -52.85 -5.49999 15.5
    vertex -54.25 5.50001 15.5
  endloop
 endfacet
 facet normal -1.73395e-007 -1 0
  outer loop
    vertex -49.5 19.5 13.95
    vertex -49.5 19.5 1.07748e-006
    vertex 49.5 19.5 1.07748e-006
  endloop
 endfacet
 facet normal -1.92662e-007 -1 -1.36728e-007
  outer loop
    vertex 49.5 19.5 13.95
    vertex -49.5 19.5 13.95
    vertex 49.5 19.5 1.07748e-006
  endloop
 endfacet
 facet normal -1 -3.91251e-007 -0
  outer loop
    vertex 49.5 -19.5 1.1461e-007
    vertex 49.5 -19.5 13.95
    vertex 49.5 -9.75001 8.5
  endloop
 endfacet
 facet normal -1 -1.95626e-007 -2.24394e-007
  outer loop
    vertex 49.5 -19.5 1.1461e-007
    vertex 49.5 -9.75001 8.5
    vertex 49.5 19.5 1.07748e-006
  endloop
 endfacet
 facet normal -1 0 0
  outer loop
    vertex 49.5 18.75 9.5
    vertex 49.5 19.5 1.07748e-006
    vertex 49.5 18.75 5.5
  endloop
 endfacet
 facet normal -1 -2.09025e-007 2.28236e-006
  outer loop
    vertex 49.5 14.2679 13.4708
    vertex 49.5 1.24999 13.95
    vertex 49.5 19.5 13.95
  endloop
 endfacet
 facet normal -1 0 0
  outer loop
    vertex 49.5 19.5 1.07748e-006
    vertex 49.5 18.75 9.5
    vertex 49.5 19.5 13.95
  endloop
 endfacet
 facet normal -1 -4.01547e-007 0
  outer loop
    vertex 49.5 10.75 5.5
    vertex 49.5 1.24999 13.95
    vertex 49.5 10.75 9.5
  endloop
 endfacet
 facet normal -1 0 0
  outer loop
    vertex 49.5 18.6338 10.4573
    vertex 49.5 18.75 9.5
    vertex 49.5 18.6338 9.5
  endloop
 endfacet
 facet normal -1 -2.67109e-007 7.04352e-007
  outer loop
    vertex 49.5 12.4777 12.7919
    vertex 49.5 1.24999 13.95
    vertex 49.5 14.2679 13.4708
  endloop
 endfacet
 facet normal -1 0 0
  outer loop
    vertex 49.5 18.75 9.5
    vertex 49.5 18.6338 10.4573
    vertex 49.5 19.5 13.95
  endloop
 endfacet
 facet normal -1 0 0
  outer loop
    vertex 49.5 18.6338 10.4573
    vertex 49.5 17.744 12.1525
    vertex 49.5 19.5 13.95
  endloop
 endfacet
 facet normal -1 -3.11313e-007 2.75783e-007
  outer loop
    vertex 49.5 11.2082 11.3589
    vertex 49.5 1.24999 13.95
    vertex 49.5 12.4777 12.7919
  endloop
 endfacet
 facet normal -1 0 0
  outer loop
    vertex 49.5 17.744 12.1525
    vertex 49.5 16.1684 13.2401
    vertex 49.5 19.5 13.95
  endloop
 endfacet
 facet normal -1 0 0
  outer loop
    vertex 49.5 16.1684 13.2401
    vertex 49.5 14.2679 13.4708
    vertex 49.5 19.5 13.95
  endloop
 endfacet
 facet normal -1 -3.59983e-007 8.87325e-008
  outer loop
    vertex 49.5 10.75 9.5
    vertex 49.5 1.24999 13.95
    vertex 49.5 11.2082 11.3589
  endloop
 endfacet
 facet normal -1 0 0
  outer loop
    vertex 49.5 17.744 2.8475
    vertex 49.5 19.5 1.07748e-006
    vertex 49.5 16.1684 1.7599
  endloop
 endfacet
 facet normal -1 -4.35441e-007 -1.07332e-007
  outer loop
    vertex 49.5 11.2082 3.6411
    vertex 49.5 1.24999 8.5
    vertex 49.5 10.75 5.5
  endloop
 endfacet
 facet normal -1 -4.01547e-007 -8.78315e-015
  outer loop
    vertex 49.5 1.24999 13.95
    vertex 49.5 10.75 5.5
    vertex 49.5 1.24999 8.5
  endloop
 endfacet
 facet normal -1 0 0
  outer loop
    vertex 49.5 16.1684 1.7599
    vertex 49.5 19.5 1.07748e-006
    vertex 49.5 14.2679 1.5292
  endloop
 endfacet
 facet normal -1 0 6.06287e-007
  outer loop
    vertex 49.5 1.24999 8.5
    vertex 49.5 12.4777 2.2081
    vertex 49.5 -9.75001 8.5
  endloop
 endfacet
 facet normal -1 -6.76782e-007 -1.78462e-006
  outer loop
    vertex 49.5 -9.75001 8.5
    vertex 49.5 12.4777 2.2081
    vertex 49.5 14.2679 1.5292
  endloop
 endfacet
 facet normal -1 -2.27659e-005 -7.78926e-005
  outer loop
    vertex 49.5 -9.75001 8.5
    vertex 49.5 14.2679 1.5292
    vertex 49.5 19.5 1.07748e-006
  endloop
 endfacet
 facet normal -1 0 0
  outer loop
    vertex 49.5 19.5 1.07748e-006
    vertex 49.5 17.744 2.8475
    vertex 49.5 18.6338 4.5427
  endloop
 endfacet
 facet normal -1 0 0
  outer loop
    vertex 49.5 19.5 1.07748e-006
    vertex 49.5 18.6338 4.5427
    vertex 49.5 18.6338 5.5
  endloop
 endfacet
 facet normal -1 0 0
  outer loop
    vertex 49.5 19.5 1.07748e-006
    vertex 49.5 18.6338 5.5
    vertex 49.5 18.75 5.5
  endloop
 endfacet
 facet normal -1 -3.91251e-007 0
  outer loop
    vertex 49.5 -9.75001 8.5
    vertex 49.5 -19.5 13.95
    vertex 49.5 -9.75001 13.95
  endloop
 endfacet
 facet normal -1 -6.74728e-007 -5.97743e-007
  outer loop
    vertex 49.5 1.24999 8.5
    vertex 49.5 11.2082 3.6411
    vertex 49.5 12.4777 2.2081
  endloop
 endfacet
 facet normal 1.92662e-007 1 1.36728e-007
  outer loop
    vertex -49.5 -19.5 1.1461e-007
    vertex -49.5 -19.5 13.95
    vertex 49.5 -19.5 1.1461e-007
  endloop
 endfacet
 facet normal 1.73395e-007 1 0
  outer loop
    vertex 49.5 -19.5 1.1461e-007
    vertex -49.5 -19.5 13.95
    vertex 49.5 -19.5 13.95
  endloop
 endfacet
 facet normal 1 3.46791e-007 -5.71185e-007
  outer loop
    vertex -49.5 -19.5 1.1461e-007
    vertex -49.5 5.50001 8.5
    vertex -49.5 -5.49999 8.5
  endloop
 endfacet
 facet normal 1 2.72478e-007 -0
  outer loop
    vertex -49.5 5.50001 13.95
    vertex -49.5 5.50001 8.5
    vertex -49.5 19.5 1.07748e-006
  endloop
 endfacet
 facet normal 1 -0 0
  outer loop
    vertex -49.5 -5.49999 13.95
    vertex -49.5 -19.5 13.95
    vertex -49.5 -5.49999 8.5
  endloop
 endfacet
 facet normal 1 0 -0
  outer loop
    vertex -49.5 -19.5 13.95
    vertex -49.5 -19.5 1.1461e-007
    vertex -49.5 -5.49999 8.5
  endloop
 endfacet
 facet normal 1 1.95626e-007 -1.26581e-007
  outer loop
    vertex -49.5 -19.5 1.1461e-007
    vertex -49.5 19.5 1.07748e-006
    vertex -49.5 5.50001 8.5
  endloop
 endfacet
 facet normal 1 2.72478e-007 0
  outer loop
    vertex -49.5 19.5 1.07748e-006
    vertex -49.5 19.5 13.95
    vertex -49.5 5.50001 13.95
  endloop
 endfacet
 facet normal -4.29575e-015 -3.01796e-008 1
  outer loop
    vertex -52.85 5.50001 13.95
    vertex -49.5 5.50001 13.95
    vertex -52.85 37.1 13.95
  endloop
 endfacet
 facet normal 2.84679e-007 7.7569e-014 1
  outer loop
    vertex -52.85 37.1 13.95
    vertex -49.5 5.50001 13.95
    vertex -49.5 19.5 13.95
  endloop
 endfacet
 facet normal -0 0 1
  outer loop
    vertex -49.5 21.25 13.95
    vertex -49.5 19.5 13.95
    vertex 49.5 19.5 13.95
  endloop
 endfacet
 facet normal -0 -0 1
  outer loop
    vertex 49.5 19.5 13.95
    vertex 49.5 1.24999 13.95
    vertex 52.85 1.24999 13.95
  endloop
 endfacet
 facet normal -1.4492e-007 -2.66018e-008 1
  outer loop
    vertex 49.5 19.5 13.95
    vertex 52.85 1.24999 13.95
    vertex 52.85 37.1 13.95
  endloop
 endfacet
 facet normal 0 0 1
  outer loop
    vertex 49.5 34.2 13.95
    vertex 52.85 37.1 13.95
    vertex -52.85 37.1 13.95
  endloop
 endfacet
 facet normal 6.37505e-008 -7.36428e-008 1
  outer loop
    vertex 49.5 21.25 13.95
    vertex 52.85 37.1 13.95
    vertex 49.5 34.2 13.95
  endloop
 endfacet
 facet normal 0 -0 1
  outer loop
    vertex -49.5 21.25 13.95
    vertex 49.5 19.5 13.95
    vertex 49.5 21.25 13.95
  endloop
 endfacet
 facet normal -2.84679e-007 0 1
  outer loop
    vertex 49.5 19.5 13.95
    vertex 52.85 37.1 13.95
    vertex 49.5 21.25 13.95
  endloop
 endfacet
 facet normal 2.84679e-007 -0 1
  outer loop
    vertex -52.85 37.1 13.95
    vertex -49.5 19.5 13.95
    vertex -49.5 21.25 13.95
  endloop
 endfacet
 facet normal -6.37505e-008 -7.36428e-008 1
  outer loop
    vertex -52.85 37.1 13.95
    vertex -49.5 21.25 13.95
    vertex -49.5 34.2 13.95
  endloop
 endfacet
 facet normal 0 0 1
  outer loop
    vertex 49.5 34.2 13.95
    vertex -52.85 37.1 13.95
    vertex -49.5 34.2 13.95
  endloop
 endfacet
 facet normal -9.69611e-015 -6.81196e-008 1
  outer loop
    vertex -49.5 -5.49999 13.95
    vertex -52.85 -5.49999 13.95
    vertex -49.5 -19.5 13.95
  endloop
 endfacet
 facet normal 0 0 1
  outer loop
    vertex 49.5 -9.75001 13.95
    vertex 52.85 -37.1 13.95
    vertex 52.85 -9.75001 13.95
  endloop
 endfacet
 facet normal 0 0 1
  outer loop
    vertex 49.5 -19.5 13.95
    vertex 52.85 -37.1 13.95
    vertex 49.5 -9.75001 13.95
  endloop
 endfacet
 facet normal 0 0 1
  outer loop
    vertex 49.5 -21.25 13.95
    vertex 52.85 -37.1 13.95
    vertex 49.5 -19.5 13.95
  endloop
 endfacet
 facet normal 1.58555e-007 -3.01796e-008 1
  outer loop
    vertex -52.85 -37.1 13.95
    vertex -49.5 -19.5 13.95
    vertex -52.85 -5.49999 13.95
  endloop
 endfacet
 facet normal 0 0 1
  outer loop
    vertex 49.5 -21.25 13.95
    vertex -49.5 -19.5 13.95
    vertex -49.5 -21.25 13.95
  endloop
 endfacet
 facet normal 0 0 1
  outer loop
    vertex 49.5 -34.2 13.95
    vertex 52.85 -37.1 13.95
    vertex 49.5 -21.25 13.95
  endloop
 endfacet
 facet normal 0 0 1
  outer loop
    vertex -52.85 -37.1 13.95
    vertex 52.85 -37.1 13.95
    vertex -49.5 -34.2 13.95
  endloop
 endfacet
 facet normal 0 -0 1
  outer loop
    vertex -52.85 -37.1 13.95
    vertex -49.5 -21.25 13.95
    vertex -49.5 -19.5 13.95
  endloop
 endfacet
 facet normal 0 0 1
  outer loop
    vertex -49.5 -34.2 13.95
    vertex -49.5 -21.25 13.95
    vertex -52.85 -37.1 13.95
  endloop
 endfacet
 facet normal 0 0 1
  outer loop
    vertex -49.5 -34.2 13.95
    vertex 52.85 -37.1 13.95
    vertex 49.5 -34.2 13.95
  endloop
 endfacet
 facet normal 0 -0 1
  outer loop
    vertex -49.5 -19.5 13.95
    vertex 49.5 -21.25 13.95
    vertex 49.5 -19.5 13.95
  endloop
 endfacet
 facet normal -1.92662e-007 -1 0
  outer loop
    vertex -49.5 34.2 13.95
    vertex -49.5 34.2 1
    vertex 49.5 34.2 1
  endloop
 endfacet
 facet normal -1.92662e-007 -1 0
  outer loop
    vertex 49.5 34.2 13.95
    vertex -49.5 34.2 13.95
    vertex 49.5 34.2 1
  endloop
 endfacet
 facet normal -1 0 0
  outer loop
    vertex 49.5 29.2 1
    vertex 49.5 29.2 4.5
    vertex 49.5 34.2 1
  endloop
 endfacet
 facet normal -1 -4.79836e-007 0
  outer loop
    vertex 49.5 21.25 13.95
    vertex 49.5 29.2 4.5
    vertex 49.5 21.25 4.5
  endloop
 endfacet
 facet normal -1 6.87333e-007 9.81905e-007
  outer loop
    vertex 49.5 34.2 1
    vertex 49.5 29.2 4.5
    vertex 49.5 21.25 13.95
  endloop
 endfacet
 facet normal -1 -2.94571e-007 0
  outer loop
    vertex 49.5 34.2 1
    vertex 49.5 21.25 13.95
    vertex 49.5 34.2 13.95
  endloop
 endfacet
 facet normal 1 0 0
  outer loop
    vertex -49.5 21.25 13.95
    vertex -49.5 21.25 4.5
    vertex -49.5 29.2 4.5
  endloop
 endfacet
 facet normal 1 0 0
  outer loop
    vertex -49.5 34.2 1
    vertex -49.5 21.25 13.95
    vertex -49.5 29.2 4.5
  endloop
 endfacet
 facet normal 1 0 0
  outer loop
    vertex -49.5 29.2 1
    vertex -49.5 34.2 1
    vertex -49.5 29.2 4.5
  endloop
 endfacet
 facet normal 1 0 0
  outer loop
    vertex -49.5 34.2 1
    vertex -49.5 34.2 13.95
    vertex -49.5 21.25 13.95
  endloop
 endfacet
 facet normal 1.92662e-007 1 0
  outer loop
    vertex -49.5 21.25 4.5
    vertex -49.5 21.25 13.95
    vertex 49.5 21.25 4.5
  endloop
 endfacet
 facet normal 1.92662e-007 1 0
  outer loop
    vertex 49.5 21.25 4.5
    vertex -49.5 21.25 13.95
    vertex 49.5 21.25 13.95
  endloop
 endfacet
 facet normal -1 -0 0
  outer loop
    vertex 49.5 -29.2 4.5
    vertex 49.5 -29.2 1
    vertex 49.5 -34.2 0.999999
  endloop
 endfacet
 facet normal -1 0 0
  outer loop
    vertex 49.5 -29.2 4.5
    vertex 49.5 -34.2 0.999999
    vertex 49.5 -34.2 13.95
  endloop
 endfacet
 facet normal -1 0 0
  outer loop
    vertex 49.5 -29.2 4.5
    vertex 49.5 -34.2 13.95
    vertex 49.5 -21.25 4.5
  endloop
 endfacet
 facet normal -1 -0 -0
  outer loop
    vertex 49.5 -34.2 13.95
    vertex 49.5 -21.25 13.95
    vertex 49.5 -21.25 4.5
  endloop
 endfacet
 facet normal -1.92662e-007 -1 0
  outer loop
    vertex -49.5 -21.25 13.95
    vertex -49.5 -21.25 4.5
    vertex 49.5 -21.25 4.5
  endloop
 endfacet
 facet normal -1.92662e-007 -1 0
  outer loop
    vertex 49.5 -21.25 13.95
    vertex -49.5 -21.25 13.95
    vertex 49.5 -21.25 4.5
  endloop
 endfacet
 facet normal 1 0 0
  outer loop
    vertex -49.5 -34.2 13.95
    vertex -49.5 -34.2 0.999999
    vertex -49.5 -29.2 1
  endloop
 endfacet
 facet normal 1 4.79836e-007 2.53881e-007
  outer loop
    vertex -49.5 -21.25 4.5
    vertex -49.5 -34.2 13.95
    vertex -49.5 -29.2 4.5
  endloop
 endfacet
 facet normal 1 0 0
  outer loop
    vertex -49.5 -29.2 4.5
    vertex -49.5 -34.2 13.95
    vertex -49.5 -29.2 1
  endloop
 endfacet
 facet normal 1 2.94571e-007 0
  outer loop
    vertex -49.5 -21.25 13.95
    vertex -49.5 -34.2 13.95
    vertex -49.5 -21.25 4.5
  endloop
 endfacet
 facet normal 1.92662e-007 1 0
  outer loop
    vertex -49.5 -34.2 0.999999
    vertex -49.5 -34.2 13.95
    vertex 49.5 -34.2 0.999999
  endloop
 endfacet
 facet normal 1.92662e-007 1 0
  outer loop
    vertex 49.5 -34.2 0.999999
    vertex -49.5 -34.2 13.95
    vertex 49.5 -34.2 13.95
  endloop
 endfacet
 facet normal -4.13407e-015 -2.38419e-008 1
  outer loop
    vertex -49.5 29.2 1
    vertex 49.5 29.2 1
    vertex -49.5 34.2 1
  endloop
 endfacet
 facet normal -4.59341e-015 -2.38419e-008 1
  outer loop
    vertex -49.5 34.2 1
    vertex 49.5 29.2 1
    vertex 49.5 34.2 1
  endloop
 endfacet
 facet normal 0 0 1
  outer loop
    vertex -49.5 21.25 4.5
    vertex 49.5 21.25 4.5
    vertex -49.5 29.2 4.5
  endloop
 endfacet
 facet normal 0 0 1
  outer loop
    vertex -49.5 29.2 4.5
    vertex 49.5 21.25 4.5
    vertex 49.5 29.2 4.5
  endloop
 endfacet
 facet normal 1.73395e-007 1 0
  outer loop
    vertex -49.5 29.2 1
    vertex -49.5 29.2 4.5
    vertex 49.5 29.2 1
  endloop
 endfacet
 facet normal 1.73395e-007 1 0
  outer loop
    vertex 49.5 29.2 1
    vertex -49.5 29.2 4.5
    vertex 49.5 29.2 4.5
  endloop
 endfacet
 facet normal -1.04002e-014 -5.99795e-008 1
  outer loop
    vertex -49.5 -29.2 4.5
    vertex 49.5 -29.2 4.5
    vertex -49.5 -21.25 4.5
  endloop
 endfacet
 facet normal -1.15557e-014 -5.99795e-008 1
  outer loop
    vertex -49.5 -21.25 4.5
    vertex 49.5 -29.2 4.5
    vertex 49.5 -21.25 4.5
  endloop
 endfacet
 facet normal -4.59341e-015 -2.38419e-008 1
  outer loop
    vertex -49.5 -34.2 0.999999
    vertex 49.5 -34.2 0.999999
    vertex -49.5 -29.2 1
  endloop
 endfacet
 facet normal -4.13407e-015 -2.38419e-008 1
  outer loop
    vertex -49.5 -29.2 1
    vertex 49.5 -34.2 0.999999
    vertex 49.5 -29.2 1
  endloop
 endfacet
 facet normal -1.73395e-007 -1 0
  outer loop
    vertex -49.5 -29.2 4.5
    vertex -49.5 -29.2 1
    vertex 49.5 -29.2 1
  endloop
 endfacet
 facet normal -1.73395e-007 -1 0
  outer loop
    vertex 49.5 -29.2 4.5
    vertex -49.5 -29.2 4.5
    vertex 49.5 -29.2 1
  endloop
 endfacet
endsolid solidname
