solid OpenSCAD_Model
  facet normal -1 0 0
    outer loop
      vertex -52.45 14.5 10.525
      vertex -52.45 16.2634 9.95205
      vertex -52.45 12.7366 9.95205
    endloop
  endfacet
  facet normal -1 0 0
    outer loop
      vertex -52.45 12.7366 9.95205
      vertex -52.45 16.2634 9.95205
      vertex -52.45 17.3532 8.45205
    endloop
  endfacet
  facet normal -1 0 0
    outer loop
      vertex -52.45 12.7366 9.95205
      vertex -52.45 17.3532 8.45205
      vertex -52.45 17.3532 6.59795
    endloop
  endfacet
  facet normal -1 0 0
    outer loop
      vertex -52.45 12.7366 9.95205
      vertex -52.45 17.3532 6.59795
      vertex -52.45 16.2634 5.09795
    endloop
  endfacet
  facet normal -1 0 0
    outer loop
      vertex -52.45 12.7366 9.95205
      vertex -52.45 16.2634 5.09795
      vertex -52.45 14.5 4.525
    endloop
  endfacet
  facet normal -1 0 0
    outer loop
      vertex -52.45 12.7366 9.95205
      vertex -52.45 14.5 4.525
      vertex -52.45 12.7366 5.09795
    endloop
  endfacet
  facet normal -1 0 0
    outer loop
      vertex -52.45 12.7366 9.95205
      vertex -52.45 12.7366 5.09795
      vertex -52.45 11.6468 6.59795
    endloop
  endfacet
  facet normal -1 0 0
    outer loop
      vertex -52.45 12.7366 9.95205
      vertex -52.45 11.6468 6.59795
      vertex -52.45 11.6468 8.45205
    endloop
  endfacet
  facet normal -4.37867e-16 0.309017 0.951057
    outer loop
      vertex -52.45 16.2634 9.95205
      vertex -52.45 14.5 10.525
      vertex -48.55 14.5 10.525
    endloop
  endfacet
  facet normal -0 0.309017 0.951057
    outer loop
      vertex -48.55 16.2634 9.95205
      vertex -52.45 16.2634 9.95205
      vertex -48.55 14.5 10.525
    endloop
  endfacet
  facet normal -4.33184e-16 -0.309017 0.951057
    outer loop
      vertex -48.55 14.5 10.525
      vertex -52.45 14.5 10.525
      vertex -52.45 12.7366 9.95205
    endloop
  endfacet
  facet normal 0 -0.309017 0.951057
    outer loop
      vertex -48.55 12.7366 9.95205
      vertex -48.55 14.5 10.525
      vertex -52.45 12.7366 9.95205
    endloop
  endfacet
  facet normal 0 -0.809017 0.587785
    outer loop
      vertex -48.55 12.7366 9.95205
      vertex -52.45 12.7366 9.95205
      vertex -52.45 11.6468 8.45205
    endloop
  endfacet
  facet normal 0 -0.809017 0.587785
    outer loop
      vertex -48.55 11.6468 8.45205
      vertex -48.55 12.7366 9.95205
      vertex -52.45 11.6468 8.45205
    endloop
  endfacet
  facet normal 0 -1 0
    outer loop
      vertex -48.55 11.6468 8.45205
      vertex -52.45 11.6468 8.45205
      vertex -52.45 11.6468 6.59795
    endloop
  endfacet
  facet normal 0 -1 0
    outer loop
      vertex -48.55 11.6468 6.59795
      vertex -48.55 11.6468 8.45205
      vertex -52.45 11.6468 6.59795
    endloop
  endfacet
  facet normal 1.33861e-16 -0.809017 -0.587785
    outer loop
      vertex -48.55 11.6468 6.59795
      vertex -52.45 11.6468 6.59795
      vertex -52.45 12.7366 5.09795
    endloop
  endfacet
  facet normal -4.64906e-16 -0 -0
    outer loop
      vertex -48.55 11.6998 6.525
      vertex -48.55 11.6468 6.59795
      vertex -48.55 12.7366 5.09795
    endloop
  endfacet
  facet normal 0 -0.809017 -0.587785
    outer loop
      vertex -48.55 12.7366 5.09795
      vertex -48.55 11.6468 6.59795
      vertex -52.45 12.7366 5.09795
    endloop
  endfacet
  facet normal -0 -0.309017 -0.951057
    outer loop
      vertex -52.45 12.7366 5.09795
      vertex -52.45 14.5 4.525
      vertex -48.55 12.7366 5.09795
    endloop
  endfacet
  facet normal 2.04338e-16 -0.309017 -0.951057
    outer loop
      vertex -48.55 12.7366 5.09795
      vertex -52.45 14.5 4.525
      vertex -48.55 14.5 4.525
    endloop
  endfacet
  facet normal 0 0.309017 -0.951057
    outer loop
      vertex -52.45 16.2634 5.09795
      vertex -48.55 16.2634 5.09795
      vertex -52.45 14.5 4.525
    endloop
  endfacet
  facet normal 2.16592e-16 0.309017 -0.951057
    outer loop
      vertex -52.45 14.5 4.525
      vertex -48.55 16.2634 5.09795
      vertex -48.55 14.5 4.525
    endloop
  endfacet
  facet normal 1.33861e-16 0.809017 -0.587785
    outer loop
      vertex -52.45 17.3532 6.59795
      vertex -48.55 17.3532 6.59795
      vertex -52.45 16.2634 5.09795
    endloop
  endfacet
  facet normal 4.8019e-15 0.809017 -0.587785
    outer loop
      vertex -52.45 16.2634 5.09795
      vertex -48.55 17.3532 6.59795
      vertex -48.55 17.3002 6.525
    endloop
  endfacet
  facet normal 0 0.809017 -0.587785
    outer loop
      vertex -52.45 16.2634 5.09795
      vertex -48.55 17.3002 6.525
      vertex -48.55 16.2634 5.09795
    endloop
  endfacet
  facet normal 0 1 -0
    outer loop
      vertex -52.45 17.3532 8.45205
      vertex -48.55 17.3532 8.45205
      vertex -52.45 17.3532 6.59795
    endloop
  endfacet
  facet normal 0 1 0
    outer loop
      vertex -52.45 17.3532 6.59795
      vertex -48.55 17.3532 8.45205
      vertex -48.55 17.3532 6.59795
    endloop
  endfacet
  facet normal 0 0.809017 0.587785
    outer loop
      vertex -52.45 16.2634 9.95205
      vertex -48.55 16.2634 9.95205
      vertex -52.45 17.3532 8.45205
    endloop
  endfacet
  facet normal 0 0.809017 0.587785
    outer loop
      vertex -52.45 17.3532 8.45205
      vertex -48.55 16.2634 9.95205
      vertex -48.55 17.3532 8.45205
    endloop
  endfacet
  facet normal 1 -0 0
    outer loop
      vertex -48.55 16.2634 9.95205
      vertex -48.55 14.5 10.525
      vertex -48.55 12.7366 9.95205
    endloop
  endfacet
  facet normal 1 0 0
    outer loop
      vertex -48.55 11.6468 6.59795
      vertex -48.55 16.2634 9.95205
      vertex -48.55 11.6468 8.45205
    endloop
  endfacet
  facet normal 1 0 0
    outer loop
      vertex -48.55 11.6468 8.45205
      vertex -48.55 16.2634 9.95205
      vertex -48.55 12.7366 9.95205
    endloop
  endfacet
  facet normal 1 0 0
    outer loop
      vertex -48.55 11.6998 6.525
      vertex -48.55 16.2634 9.95205
      vertex -48.55 11.6468 6.59795
    endloop
  endfacet
  facet normal 1 -0 0
    outer loop
      vertex -48.55 17.3002 6.525
      vertex -48.55 16.2634 9.95205
      vertex -48.55 11.6998 6.525
    endloop
  endfacet
  facet normal 1 -0 0
    outer loop
      vertex -48.55 17.3532 6.59795
      vertex -48.55 16.2634 9.95205
      vertex -48.55 17.3002 6.525
    endloop
  endfacet
  facet normal 1 -0 0
    outer loop
      vertex -48.55 17.3532 8.45205
      vertex -48.55 16.2634 9.95205
      vertex -48.55 17.3532 6.59795
    endloop
  endfacet
  facet normal -1 0 -0
    outer loop
      vertex -48.55 9.85 0.825
      vertex -48.55 9.85 13.325
      vertex -48.55 11.6998 6.525
    endloop
  endfacet
  facet normal -1 0 0
    outer loop
      vertex -48.55 9.85 0.825
      vertex -48.55 11.6998 6.525
      vertex -48.55 12.7366 5.09795
    endloop
  endfacet
  facet normal -1 -0 0
    outer loop
      vertex -48.55 9.85 0.825
      vertex -48.55 12.7366 5.09795
      vertex -48.55 18.15 0.825
    endloop
  endfacet
  facet normal -1 0 0
    outer loop
      vertex -48.55 14.5 4.525
      vertex -48.55 18.15 0.825
      vertex -48.55 12.7366 5.09795
    endloop
  endfacet
  facet normal -1 0 0
    outer loop
      vertex -48.55 18.15 0.825
      vertex -48.55 16.2634 5.09795
      vertex -48.55 17.3002 6.525
    endloop
  endfacet
  facet normal -1 0 0
    outer loop
      vertex -48.55 18.15 0.825
      vertex -48.55 17.3002 6.525
      vertex -48.55 18.15 13.325
    endloop
  endfacet
  facet normal -1 0 -0
    outer loop
      vertex -48.55 11.6998 6.525
      vertex -48.55 9.85 13.325
      vertex -48.55 18.15 13.325
    endloop
  endfacet
  facet normal -1 -0 0
    outer loop
      vertex -48.55 11.6998 6.525
      vertex -48.55 18.15 13.325
      vertex -48.55 17.3002 6.525
    endloop
  endfacet
  facet normal -1 0 0
    outer loop
      vertex -48.55 16.2634 5.09795
      vertex -48.55 18.15 0.825
      vertex -48.55 14.5 4.525
    endloop
  endfacet
  facet normal -0 -0 -1
    outer loop
      vertex -48.55 9.85 0.825
      vertex -48.55 18.15 0.825
      vertex -43 9.85 0.825
    endloop
  endfacet
  facet normal 0 0 -1
    outer loop
      vertex -43 9.85 0.825
      vertex -48.55 18.15 0.825
      vertex -43 18.15 0.825
    endloop
  endfacet
  facet normal 0 -0 -1
    outer loop
      vertex -43 18.15 0.825
      vertex -43 21 0.825
      vertex 43 21 0.825
    endloop
  endfacet
  facet normal -0 0 -1
    outer loop
      vertex -43 18.15 0.825
      vertex 43 21 0.825
      vertex -43 9.85 0.825
    endloop
  endfacet
  facet normal -0 0 -1
    outer loop
      vertex -43 9.85 0.825
      vertex 43 21 0.825
      vertex 43 3.8 0.825
    endloop
  endfacet
  facet normal 0 0 -1
    outer loop
      vertex 43 3.8 0.825
      vertex 50.45 3.8 0.825
      vertex 50.45 -3.8 0.825
    endloop
  endfacet
  facet normal 0 0 -1
    outer loop
      vertex 43 -21 0.825
      vertex -43 -21 0.825
      vertex -43 -7.85 0.825
    endloop
  endfacet
  facet normal 0 0 -1
    outer loop
      vertex 43 -21 0.825
      vertex -43 -7.85 0.825
      vertex -42.9 -7.85 0.825
    endloop
  endfacet
  facet normal 0 0 -1
    outer loop
      vertex 43 -21 0.825
      vertex -42.9 -7.85 0.825
      vertex -42.9 0.15 0.825
    endloop
  endfacet
  facet normal 0 0 -1
    outer loop
      vertex -43 9.85 0.825
      vertex 43 3.8 0.825
      vertex 50.45 -3.8 0.825
    endloop
  endfacet
  facet normal 0 0 -1
    outer loop
      vertex -43 9.85 0.825
      vertex 50.45 -3.8 0.825
      vertex 43 -3.8 0.825
    endloop
  endfacet
  facet normal 0 0 -1
    outer loop
      vertex -43 9.85 0.825
      vertex 43 -3.8 0.825
      vertex 43 -21 0.825
    endloop
  endfacet
  facet normal 0 0 -1
    outer loop
      vertex -43 9.85 0.825
      vertex 43 -21 0.825
      vertex -42.9 0.15 0.825
    endloop
  endfacet
  facet normal 0 0 -1
    outer loop
      vertex -43 9.85 0.825
      vertex -42.9 0.15 0.825
      vertex -43 0.15 0.825
    endloop
  endfacet
  facet normal 0 1 0
    outer loop
      vertex -48.55 18.15 0.825
      vertex -48.55 18.15 13.325
      vertex -43 18.15 0.825
    endloop
  endfacet
  facet normal 0 1 0
    outer loop
      vertex -43 18.15 4.425
      vertex -48.55 18.15 13.325
      vertex -34.45 18.15 13.325
    endloop
  endfacet
  facet normal 0 1 0
    outer loop
      vertex -43 18.15 0.825
      vertex -48.55 18.15 13.325
      vertex -43 18.15 4.425
    endloop
  endfacet
  facet normal 0 1 0
    outer loop
      vertex -43 18.15 4.425
      vertex -34.45 18.15 13.325
      vertex -34.45 18.15 4.425
    endloop
  endfacet
  facet normal 0 -0 1
    outer loop
      vertex -48.55 18.15 13.325
      vertex -48.55 9.85 13.325
      vertex -34.45 9.85 13.325
    endloop
  endfacet
  facet normal 0 0 1
    outer loop
      vertex -34.45 18.15 13.325
      vertex -48.55 18.15 13.325
      vertex -34.45 9.85 13.325
    endloop
  endfacet
  facet normal 0 -1 0
    outer loop
      vertex -48.55 9.85 13.325
      vertex -48.55 9.85 0.825
      vertex -43 9.85 0.825
    endloop
  endfacet
  facet normal 0 -1 0
    outer loop
      vertex -34.45 9.85 4.425
      vertex -48.55 9.85 13.325
      vertex -43 9.85 4.425
    endloop
  endfacet
  facet normal 0 -1 0
    outer loop
      vertex -43 9.85 4.425
      vertex -48.55 9.85 13.325
      vertex -43 9.85 0.825
    endloop
  endfacet
  facet normal 0 -1 0
    outer loop
      vertex -34.45 9.85 13.325
      vertex -48.55 9.85 13.325
      vertex -34.45 9.85 4.425
    endloop
  endfacet
  facet normal -1 -0 -0
    outer loop
      vertex -43 -21 0.825
      vertex -43 -21 4.425
      vertex -43 -7.85 0.825
    endloop
  endfacet
  facet normal -1 0 -0
    outer loop
      vertex -43 0.15 3.525
      vertex -43 -21 4.425
      vertex -43 9.85 4.425
    endloop
  endfacet
  facet normal -1 -0 0
    outer loop
      vertex -43 0.15 0.825
      vertex -43 9.85 4.425
      vertex -43 9.85 0.825
    endloop
  endfacet
  facet normal -1 -0 -0
    outer loop
      vertex -43 -7.85 3.525
      vertex -43 -21 4.425
      vertex -43 0.15 3.525
    endloop
  endfacet
  facet normal -1 0 0
    outer loop
      vertex -43 -7.85 0.825
      vertex -43 -21 4.425
      vertex -43 -7.85 3.525
    endloop
  endfacet
  facet normal -1 -0 0
    outer loop
      vertex -43 0.15 3.525
      vertex -43 9.85 4.425
      vertex -43 0.15 0.825
    endloop
  endfacet
  facet normal 0 1 0
    outer loop
      vertex -48.9 0.15 0.825
      vertex -48.9 0.15 3.525
      vertex -48.55 0.15 0.825
    endloop
  endfacet
  facet normal 0 1 0
    outer loop
      vertex -48.55 0.15 0.825
      vertex -48.9 0.15 3.525
      vertex -43 0.15 3.525
    endloop
  endfacet
  facet normal 0 1 0
    outer loop
      vertex -48.55 0.15 0.825
      vertex -43 0.15 3.525
      vertex -43 0.15 0.825
    endloop
  endfacet
  facet normal 0 6.95574e-19 0
    outer loop
      vertex -48.55 0.15 0.825
      vertex -43 0.15 0.825
      vertex -42.9 0.15 0.825
    endloop
  endfacet
  facet normal 0 -1 0
    outer loop
      vertex -48.9 -7.85 3.525
      vertex -48.9 -7.85 0.825
      vertex -48.55 -7.85 0.825
    endloop
  endfacet
  facet normal 0 -1 0
    outer loop
      vertex -43 -7.85 0.825
      vertex -43 -7.85 3.525
      vertex -48.9 -7.85 3.525
    endloop
  endfacet
  facet normal 0 -1 0
    outer loop
      vertex -43 -7.85 0.825
      vertex -48.9 -7.85 3.525
      vertex -48.55 -7.85 0.825
    endloop
  endfacet
  facet normal 0 -3.92999e-17 0
    outer loop
      vertex -42.9 -7.85 0.825
      vertex -43 -7.85 0.825
      vertex -48.55 -7.85 0.825
    endloop
  endfacet
  facet normal 0 -1 0
    outer loop
      vertex -43 -21 4.425
      vertex -43 -21 0.825
      vertex 43 -21 0.825
    endloop
  endfacet
  facet normal 0 -1 0
    outer loop
      vertex 43 -21 4.425
      vertex -43 -21 4.425
      vertex 43 -21 0.825
    endloop
  endfacet
  facet normal 1 0 -0
    outer loop
      vertex 43 -21 4.425
      vertex 43 -21 0.825
      vertex 43 -3.8 0.825
    endloop
  endfacet
  facet normal 1 0 0
    outer loop
      vertex 43 -3.8 4.425
      vertex 43 -21 4.425
      vertex 43 -3.8 0.825
    endloop
  endfacet
  facet normal 0 -1 0
    outer loop
      vertex 43 -3.8 4.425
      vertex 43 -3.8 0.825
      vertex 50.45 -3.8 0.825
    endloop
  endfacet
  facet normal 0 -1 0
    outer loop
      vertex 50.45 -3.8 4.425
      vertex 43 -3.8 4.425
      vertex 50.45 -3.8 0.825
    endloop
  endfacet
  facet normal 1 0 -0
    outer loop
      vertex 50.45 -3.8 4.425
      vertex 50.45 -3.8 0.825
      vertex 50.45 3.8 0.825
    endloop
  endfacet
  facet normal 1 0 0
    outer loop
      vertex 50.45 3.8 4.425
      vertex 50.45 -3.8 4.425
      vertex 50.45 3.8 0.825
    endloop
  endfacet
  facet normal 0 1 0
    outer loop
      vertex 43 3.8 0.825
      vertex 43 3.8 4.425
      vertex 50.45 3.8 0.825
    endloop
  endfacet
  facet normal 0 1 0
    outer loop
      vertex 50.45 3.8 0.825
      vertex 43 3.8 4.425
      vertex 50.45 3.8 4.425
    endloop
  endfacet
  facet normal 1 0 -0
    outer loop
      vertex 43 3.8 4.425
      vertex 43 3.8 0.825
      vertex 43 21 0.825
    endloop
  endfacet
  facet normal 1 0 0
    outer loop
      vertex 43 21 4.425
      vertex 43 3.8 4.425
      vertex 43 21 0.825
    endloop
  endfacet
  facet normal 0 1 0
    outer loop
      vertex -43 21 0.825
      vertex -43 21 4.425
      vertex 43 21 0.825
    endloop
  endfacet
  facet normal 0 1 0
    outer loop
      vertex 43 21 0.825
      vertex -43 21 4.425
      vertex 43 21 4.425
    endloop
  endfacet
  facet normal -1 -0 -0
    outer loop
      vertex -43 18.15 0.825
      vertex -43 18.15 4.425
      vertex -43 21 0.825
    endloop
  endfacet
  facet normal -1 0 0
    outer loop
      vertex -43 21 0.825
      vertex -43 18.15 4.425
      vertex -43 21 4.425
    endloop
  endfacet
  facet normal 0 -0 1
    outer loop
      vertex -16.55 -14.1 4.425
      vertex -43 -21 4.425
      vertex 43 -21 4.425
    endloop
  endfacet
  facet normal -0 0 1
    outer loop
      vertex 50.45 -3.8 4.425
      vertex -43 9.85 4.425
      vertex 43 -3.8 4.425
    endloop
  endfacet
  facet normal -0 0 1
    outer loop
      vertex 43 -3.8 4.425
      vertex -43 9.85 4.425
      vertex 43 -21 4.425
    endloop
  endfacet
  facet normal -0 -0 1
    outer loop
      vertex 43 3.8 4.425
      vertex -43 9.85 4.425
      vertex 50.45 -3.8 4.425
    endloop
  endfacet
  facet normal 0 0 1
    outer loop
      vertex 50.45 3.8 4.425
      vertex 43 3.8 4.425
      vertex 50.45 -3.8 4.425
    endloop
  endfacet
  facet normal 0 -0 1
    outer loop
      vertex -43 21 4.425
      vertex -43 18.15 4.425
      vertex 43 21 4.425
    endloop
  endfacet
  facet normal 0 0 1
    outer loop
      vertex -43 18.15 4.425
      vertex -34.45 18.15 4.425
      vertex 43 21 4.425
    endloop
  endfacet
  facet normal -0 0 1
    outer loop
      vertex 3.7 13.35 4.425
      vertex -14.959 13.441 4.425
      vertex -14.3 11.85 4.425
    endloop
  endfacet
  facet normal 0 -0 1
    outer loop
      vertex -43 9.85 4.425
      vertex -43 -21 4.425
      vertex -18.141 -13.441 4.425
    endloop
  endfacet
  facet normal 0 -0 1
    outer loop
      vertex -14.959 -13.441 4.425
      vertex -16.55 -14.1 4.425
      vertex 43 -21 4.425
    endloop
  endfacet
  facet normal 0 0 1
    outer loop
      vertex -43 9.85 4.425
      vertex -18.141 -13.441 4.425
      vertex -18.8 -11.85 4.425
    endloop
  endfacet
  facet normal 0 -0 1
    outer loop
      vertex -14.3 -11.85 4.425
      vertex -14.959 -13.441 4.425
      vertex 43 -21 4.425
    endloop
  endfacet
  facet normal 0 0 1
    outer loop
      vertex -43 9.85 4.425
      vertex -18.8 -11.85 4.425
      vertex -18.141 -10.259 4.425
    endloop
  endfacet
  facet normal 0 0 1
    outer loop
      vertex -43 9.85 4.425
      vertex -16.55 -9.6 4.425
      vertex 43 -21 4.425
    endloop
  endfacet
  facet normal 0 0 1
    outer loop
      vertex -43 9.85 4.425
      vertex -18.141 -10.259 4.425
      vertex -16.55 -9.6 4.425
    endloop
  endfacet
  facet normal 0 0 1
    outer loop
      vertex -16.55 -9.6 4.425
      vertex -14.959 -10.259 4.425
      vertex 43 -21 4.425
    endloop
  endfacet
  facet normal 0 0 1
    outer loop
      vertex 3.7 13.35 4.425
      vertex -14.3 11.85 4.425
      vertex -14.959 10.259 4.425
    endloop
  endfacet
  facet normal 0 -0 1
    outer loop
      vertex -18.141 -13.441 4.425
      vertex -43 -21 4.425
      vertex -16.55 -14.1 4.425
    endloop
  endfacet
  facet normal 0 -0 1
    outer loop
      vertex -34.45 18.15 4.425
      vertex -34.45 9.85 4.425
      vertex -18.141 13.441 4.425
    endloop
  endfacet
  facet normal 0 -0 1
    outer loop
      vertex -18.8 11.85 4.425
      vertex -34.45 9.85 4.425
      vertex -18.141 10.259 4.425
    endloop
  endfacet
  facet normal 0 -0 1
    outer loop
      vertex 9 15.75 4.425
      vertex 9 13.35 4.425
      vertex 43 21 4.425
    endloop
  endfacet
  facet normal 0 0 1
    outer loop
      vertex 3.7 15.75 4.425
      vertex 9 15.75 4.425
      vertex 43 21 4.425
    endloop
  endfacet
  facet normal -0 0 1
    outer loop
      vertex -18.8 11.85 4.425
      vertex -18.141 13.441 4.425
      vertex -34.45 9.85 4.425
    endloop
  endfacet
  facet normal 0 0 1
    outer loop
      vertex -34.45 18.15 4.425
      vertex -16.55 14.1 4.425
      vertex 43 21 4.425
    endloop
  endfacet
  facet normal 0 0 1
    outer loop
      vertex -34.45 18.15 4.425
      vertex -18.141 13.441 4.425
      vertex -16.55 14.1 4.425
    endloop
  endfacet
  facet normal 0 0 1
    outer loop
      vertex -16.55 14.1 4.425
      vertex -14.959 13.441 4.425
      vertex 43 21 4.425
    endloop
  endfacet
  facet normal 0 0 1
    outer loop
      vertex -14.959 -10.259 4.425
      vertex -14.3 -11.85 4.425
      vertex 43 -21 4.425
    endloop
  endfacet
  facet normal 0 -0 1
    outer loop
      vertex -14.959 10.259 4.425
      vertex -16.55 9.6 4.425
      vertex 43 3.8 4.425
    endloop
  endfacet
  facet normal 0 0 1
    outer loop
      vertex 3.7 13.35 4.425
      vertex 3.7 15.75 4.425
      vertex -14.959 13.441 4.425
    endloop
  endfacet
  facet normal 0 -0 1
    outer loop
      vertex -18.141 10.259 4.425
      vertex -34.45 9.85 4.425
      vertex -16.55 9.6 4.425
    endloop
  endfacet
  facet normal 0 0 1
    outer loop
      vertex 43 21 4.425
      vertex -14.959 13.441 4.425
      vertex 3.7 15.75 4.425
    endloop
  endfacet
  facet normal 0 0 1
    outer loop
      vertex 43 3.8 4.425
      vertex -34.45 9.85 4.425
      vertex -43 9.85 4.425
    endloop
  endfacet
  facet normal 0 0 1
    outer loop
      vertex 43 3.8 4.425
      vertex -16.55 9.6 4.425
      vertex -34.45 9.85 4.425
    endloop
  endfacet
  facet normal 0 0 1
    outer loop
      vertex 43 3.8 4.425
      vertex 3.7 13.35 4.425
      vertex -14.959 10.259 4.425
    endloop
  endfacet
  facet normal 0 0 1
    outer loop
      vertex 43 3.8 4.425
      vertex 9 13.35 4.425
      vertex 3.7 13.35 4.425
    endloop
  endfacet
  facet normal 0 0 1
    outer loop
      vertex 43 3.8 4.425
      vertex 43 21 4.425
      vertex 9 13.35 4.425
    endloop
  endfacet
  facet normal 1 0 -0
    outer loop
      vertex -34.45 9.85 13.325
      vertex -34.45 9.85 4.425
      vertex -34.45 18.15 4.425
    endloop
  endfacet
  facet normal 1 0 0
    outer loop
      vertex -34.45 18.15 13.325
      vertex -34.45 9.85 13.325
      vertex -34.45 18.15 4.425
    endloop
  endfacet
  facet normal 0 -0 1
    outer loop
      vertex -48.9 0.15 3.525
      vertex -48.9 -7.85 3.525
      vertex -43 -7.85 3.525
    endloop
  endfacet
  facet normal 0 0 1
    outer loop
      vertex -43 0.15 3.525
      vertex -48.9 0.15 3.525
      vertex -43 -7.85 3.525
    endloop
  endfacet
  facet normal 0 0 -1
    outer loop
      vertex -48.55 0.15 0.825
      vertex -48.55 -7.85 0.825
      vertex -48.9 0.15 0.825
    endloop
  endfacet
  facet normal 0 0 -1
    outer loop
      vertex -48.9 0.15 0.825
      vertex -48.55 -7.85 0.825
      vertex -48.9 -7.85 0.825
    endloop
  endfacet
  facet normal -1 -0 -0
    outer loop
      vertex -48.55 -33.05 -0.825
      vertex -48.55 -33.05 0.825
      vertex -48.55 -28.05 -0.825
    endloop
  endfacet
  facet normal -1 0 0
    outer loop
      vertex -48.55 -28.05 -0.825
      vertex -48.55 -33.05 0.825
      vertex -48.55 -28.05 0.825
    endloop
  endfacet
  facet normal -1 0 -0
    outer loop
      vertex -48.55 -28.05 0.825
      vertex -48.55 -28.05 5.025
      vertex -48.55 -23.05 5.025
    endloop
  endfacet
  facet normal -1 -0 0
    outer loop
      vertex -48.55 -28.05 0.825
      vertex -48.55 -23.05 5.025
      vertex -48.55 -28.05 -0.825
    endloop
  endfacet
  facet normal -1 0 0
    outer loop
      vertex -48.55 -28.05 -0.825
      vertex -48.55 -23.05 5.025
      vertex -48.55 -23.05 0.825
    endloop
  endfacet
  facet normal -1 0 0
    outer loop
      vertex -48.55 -28.05 -0.825
      vertex -48.55 -23.05 0.825
      vertex -48.55 -7.85 0.825
    endloop
  endfacet
  facet normal -1 0 0
    outer loop
      vertex -48.55 -7.85 0.825
      vertex -48.55 0.15 0.825
      vertex -48.55 -28.05 -0.825
    endloop
  endfacet
  facet normal -1 0 0
    outer loop
      vertex -48.55 0.15 0.825
      vertex -48.55 23.05 0.825
      vertex -48.55 -28.05 -0.825
    endloop
  endfacet
  facet normal -1 0 -0
    outer loop
      vertex -48.55 23.05 0.825
      vertex -48.55 23.05 5.025
      vertex -48.55 28.05 5.025
    endloop
  endfacet
  facet normal -1 -0 0
    outer loop
      vertex -48.55 23.05 0.825
      vertex -48.55 28.05 5.025
      vertex -48.55 28.05 0.825
    endloop
  endfacet
  facet normal -1 0 0
    outer loop
      vertex -48.55 23.05 0.825
      vertex -48.55 28.05 0.825
      vertex -48.55 -28.05 -0.825
    endloop
  endfacet
  facet normal -1 0 0
    outer loop
      vertex -48.55 28.05 0.825
      vertex -48.55 33.05 0.825
      vertex -48.55 -28.05 -0.825
    endloop
  endfacet
  facet normal -1 -0 0
    outer loop
      vertex -48.55 28.05 -0.825
      vertex -48.55 33.05 0.825
      vertex -48.55 33.05 -0.825
    endloop
  endfacet
  facet normal -1 -0 0
    outer loop
      vertex -48.55 -28.05 -0.825
      vertex -48.55 33.05 0.825
      vertex -48.55 -23.05 -0.825
    endloop
  endfacet
  facet normal -1 0 0
    outer loop
      vertex -48.55 23.05 -0.825
      vertex -48.55 28.05 -9.325
      vertex -48.55 23.05 -9.325
    endloop
  endfacet
  facet normal -1 0 0
    outer loop
      vertex -48.55 28.05 -0.825
      vertex -48.55 28.05 -9.325
      vertex -48.55 23.05 -0.825
    endloop
  endfacet
  facet normal -1 0 -0
    outer loop
      vertex -48.55 28.05 -0.825
      vertex -48.55 23.05 -0.825
      vertex -48.55 33.05 0.825
    endloop
  endfacet
  facet normal -1 0 0
    outer loop
      vertex -48.55 -23.05 -9.325
      vertex -48.55 -28.05 -0.825
      vertex -48.55 -23.05 -0.825
    endloop
  endfacet
  facet normal -1 0 -0
    outer loop
      vertex -48.55 23.05 -0.825
      vertex -48.55 -23.05 -0.825
      vertex -48.55 33.05 0.825
    endloop
  endfacet
  facet normal -1 0 0
    outer loop
      vertex -48.55 -28.05 -0.825
      vertex -48.55 -23.05 -9.325
      vertex -48.55 -28.05 -9.325
    endloop
  endfacet
  facet normal 0 -0 1
    outer loop
      vertex -48.55 -28.05 0.825
      vertex -48.55 -33.05 0.825
      vertex 48.55 -33.05 0.825
    endloop
  endfacet
  facet normal 0 0 1
    outer loop
      vertex 46.5 24.95 0.825
      vertex 41.2 24.95 0.825
      vertex 15.95 -23.05 0.825
    endloop
  endfacet
  facet normal 0 -0 1
    outer loop
      vertex 15.95 -28.05 0.825
      vertex -48.55 -28.05 0.825
      vertex 48.55 -33.05 0.825
    endloop
  endfacet
  facet normal 0 -0 1
    outer loop
      vertex -48.55 33.05 0.825
      vertex -48.55 28.05 0.825
      vertex 48.55 33.05 0.825
    endloop
  endfacet
  facet normal 0 0 1
    outer loop
      vertex -48.55 28.05 0.825
      vertex 15.95 28.05 0.825
      vertex 48.55 33.05 0.825
    endloop
  endfacet
  facet normal 0 0 1
    outer loop
      vertex -48.55 -23.05 0.825
      vertex 41.2 27.35 0.825
      vertex 48.55 33.05 0.825
    endloop
  endfacet
  facet normal 0 -0 1
    outer loop
      vertex 15.95 28.05 0.825
      vertex 15.95 23.05 0.825
      vertex 48.55 33.05 0.825
    endloop
  endfacet
  facet normal 0 0 1
    outer loop
      vertex -48.55 -23.05 0.825
      vertex 41.2 24.95 0.825
      vertex 41.2 27.35 0.825
    endloop
  endfacet
  facet normal 0 0 1
    outer loop
      vertex -48.55 -23.05 0.825
      vertex 15.95 23.05 0.825
      vertex -42.9 -7.85 0.825
    endloop
  endfacet
  facet normal 0 0 1
    outer loop
      vertex -42.9 -7.85 0.825
      vertex -48.55 -7.85 0.825
      vertex -48.55 -23.05 0.825
    endloop
  endfacet
  facet normal 0 0 1
    outer loop
      vertex -48.55 -23.05 0.825
      vertex 48.55 33.05 0.825
      vertex 15.95 23.05 0.825
    endloop
  endfacet
  facet normal -0 -0 1
    outer loop
      vertex 41.2 -27.35 0.825
      vertex 15.95 -23.05 0.825
      vertex 48.55 -33.05 0.825
    endloop
  endfacet
  facet normal 0 -0 1
    outer loop
      vertex 15.95 -23.05 0.825
      vertex 15.95 -28.05 0.825
      vertex 48.55 -33.05 0.825
    endloop
  endfacet
  facet normal 0 -0 1
    outer loop
      vertex 46.5 -27.35 0.825
      vertex 41.2 -27.35 0.825
      vertex 48.55 -33.05 0.825
    endloop
  endfacet
  facet normal -0 0 1
    outer loop
      vertex 41.2 -24.95 0.825
      vertex 15.95 -23.05 0.825
      vertex 41.2 -27.35 0.825
    endloop
  endfacet
  facet normal 0 0 1
    outer loop
      vertex 48.55 33.05 0.825
      vertex 46.5 -24.95 0.825
      vertex 48.55 -33.05 0.825
    endloop
  endfacet
  facet normal 0 -0 1
    outer loop
      vertex 46.5 -24.95 0.825
      vertex 46.5 -27.35 0.825
      vertex 48.55 -33.05 0.825
    endloop
  endfacet
  facet normal 0 0 1
    outer loop
      vertex 41.2 -24.95 0.825
      vertex 46.5 -24.95 0.825
      vertex 48.55 33.05 0.825
    endloop
  endfacet
  facet normal 0 0 1
    outer loop
      vertex 46.5 24.95 0.825
      vertex 15.95 -23.05 0.825
      vertex 41.2 -24.95 0.825
    endloop
  endfacet
  facet normal 0 0 1
    outer loop
      vertex 41.2 27.35 0.825
      vertex 46.5 27.35 0.825
      vertex 48.55 33.05 0.825
    endloop
  endfacet
  facet normal 0 0 1
    outer loop
      vertex 48.55 33.05 0.825
      vertex 46.5 24.95 0.825
      vertex 41.2 -24.95 0.825
    endloop
  endfacet
  facet normal 0 0 1
    outer loop
      vertex 48.55 33.05 0.825
      vertex 46.5 27.35 0.825
      vertex 46.5 24.95 0.825
    endloop
  endfacet
  facet normal 0 0 1
    outer loop
      vertex 15.95 23.05 0.825
      vertex -42.9 0.15 0.825
      vertex -42.9 -7.85 0.825
    endloop
  endfacet
  facet normal 0 0 1
    outer loop
      vertex 15.95 23.05 0.825
      vertex -48.55 0.15 0.825
      vertex -42.9 0.15 0.825
    endloop
  endfacet
  facet normal 0 0 1
    outer loop
      vertex 15.95 23.05 0.825
      vertex -48.55 23.05 0.825
      vertex -48.55 0.15 0.825
    endloop
  endfacet
  facet normal 0 0 1
    outer loop
      vertex -48.55 -23.05 0.825
      vertex 15.95 -23.05 0.825
      vertex 41.2 24.95 0.825
    endloop
  endfacet
  facet normal -1 -0 -0
    outer loop
      vertex -48.9 -7.85 0.825
      vertex -48.9 -7.85 3.525
      vertex -48.9 0.15 0.825
    endloop
  endfacet
  facet normal -1 0 0
    outer loop
      vertex -48.9 0.15 0.825
      vertex -48.9 -7.85 3.525
      vertex -48.9 0.15 3.525
    endloop
  endfacet
  facet normal -0.923879 -0.382684 -0
    outer loop
      vertex -18.8 -11.85 4.425
      vertex -18.141 -13.441 4.425
      vertex -18.8 -11.85 10.625
    endloop
  endfacet
  facet normal -0.923879 -0.382684 0
    outer loop
      vertex -18.8 -11.85 10.625
      vertex -18.141 -13.441 4.425
      vertex -18.141 -13.441 10.625
    endloop
  endfacet
  facet normal -0.382684 -0.923879 0
    outer loop
      vertex -18.141 -13.441 10.625
      vertex -18.141 -13.441 4.425
      vertex -16.55 -14.1 4.425
    endloop
  endfacet
  facet normal -0.382684 -0.923879 0
    outer loop
      vertex -16.55 -14.1 10.625
      vertex -18.141 -13.441 10.625
      vertex -16.55 -14.1 4.425
    endloop
  endfacet
  facet normal 0.382684 -0.923879 0
    outer loop
      vertex -16.55 -14.1 10.625
      vertex -16.55 -14.1 4.425
      vertex -14.959 -13.441 4.425
    endloop
  endfacet
  facet normal 0.382684 -0.923879 0
    outer loop
      vertex -14.959 -13.441 10.625
      vertex -16.55 -14.1 10.625
      vertex -14.959 -13.441 4.425
    endloop
  endfacet
  facet normal 0.923879 -0.382684 0
    outer loop
      vertex -14.959 -13.441 10.625
      vertex -14.959 -13.441 4.425
      vertex -14.3 -11.85 4.425
    endloop
  endfacet
  facet normal 0.923879 -0.382684 0
    outer loop
      vertex -14.3 -11.85 10.625
      vertex -14.959 -13.441 10.625
      vertex -14.3 -11.85 4.425
    endloop
  endfacet
  facet normal 0.923879 0.382684 0
    outer loop
      vertex -14.3 -11.85 4.425
      vertex -14.959 -10.259 4.425
      vertex -14.959 -10.259 10.625
    endloop
  endfacet
  facet normal 0.923879 0.382684 -0
    outer loop
      vertex -14.3 -11.85 10.625
      vertex -14.3 -11.85 4.425
      vertex -14.959 -10.259 10.625
    endloop
  endfacet
  facet normal 0.382684 0.923879 0
    outer loop
      vertex -16.55 -9.6 4.425
      vertex -16.55 -9.6 10.625
      vertex -14.959 -10.259 4.425
    endloop
  endfacet
  facet normal 0.382684 0.923879 0
    outer loop
      vertex -14.959 -10.259 4.425
      vertex -16.55 -9.6 10.625
      vertex -14.959 -10.259 10.625
    endloop
  endfacet
  facet normal -0.382684 0.923879 0
    outer loop
      vertex -18.141 -10.259 4.425
      vertex -18.141 -10.259 10.625
      vertex -16.55 -9.6 4.425
    endloop
  endfacet
  facet normal -0.382684 0.923879 0
    outer loop
      vertex -16.55 -9.6 4.425
      vertex -18.141 -10.259 10.625
      vertex -16.55 -9.6 10.625
    endloop
  endfacet
  facet normal -0.923879 0.382684 0
    outer loop
      vertex -18.8 -11.85 4.425
      vertex -18.8 -11.85 10.625
      vertex -18.141 -10.259 4.425
    endloop
  endfacet
  facet normal -0.923879 0.382684 0
    outer loop
      vertex -18.141 -10.259 4.425
      vertex -18.8 -11.85 10.625
      vertex -18.141 -10.259 10.625
    endloop
  endfacet
  facet normal -0.382684 -0.923879 0
    outer loop
      vertex -18.141 10.259 10.625
      vertex -18.141 10.259 4.425
      vertex -16.55 9.6 4.425
    endloop
  endfacet
  facet normal -0.382684 -0.923879 0
    outer loop
      vertex -16.55 9.6 10.625
      vertex -18.141 10.259 10.625
      vertex -16.55 9.6 4.425
    endloop
  endfacet
  facet normal -0.923879 -0.382684 -0
    outer loop
      vertex -18.8 11.85 4.425
      vertex -18.141 10.259 4.425
      vertex -18.8 11.85 10.625
    endloop
  endfacet
  facet normal -0.923879 -0.382684 0
    outer loop
      vertex -18.8 11.85 10.625
      vertex -18.141 10.259 4.425
      vertex -18.141 10.259 10.625
    endloop
  endfacet
  facet normal 0.382684 -0.923879 0
    outer loop
      vertex -16.55 9.6 10.625
      vertex -16.55 9.6 4.425
      vertex -14.959 10.259 4.425
    endloop
  endfacet
  facet normal 0.382684 -0.923879 0
    outer loop
      vertex -14.959 10.259 10.625
      vertex -16.55 9.6 10.625
      vertex -14.959 10.259 4.425
    endloop
  endfacet
  facet normal 0.923879 -0.382684 0
    outer loop
      vertex -14.959 10.259 10.625
      vertex -14.959 10.259 4.425
      vertex -14.3 11.85 4.425
    endloop
  endfacet
  facet normal 0.923879 -0.382684 0
    outer loop
      vertex -14.3 11.85 10.625
      vertex -14.959 10.259 10.625
      vertex -14.3 11.85 4.425
    endloop
  endfacet
  facet normal 0.923879 0.382684 0
    outer loop
      vertex -14.3 11.85 4.425
      vertex -14.959 13.441 4.425
      vertex -14.959 13.441 10.625
    endloop
  endfacet
  facet normal 0.923879 0.382684 -0
    outer loop
      vertex -14.3 11.85 10.625
      vertex -14.3 11.85 4.425
      vertex -14.959 13.441 10.625
    endloop
  endfacet
  facet normal 0.382684 0.923879 0
    outer loop
      vertex -16.55 14.1 4.425
      vertex -16.55 14.1 10.625
      vertex -14.959 13.441 4.425
    endloop
  endfacet
  facet normal 0.382684 0.923879 0
    outer loop
      vertex -14.959 13.441 4.425
      vertex -16.55 14.1 10.625
      vertex -14.959 13.441 10.625
    endloop
  endfacet
  facet normal -0.382684 0.923879 0
    outer loop
      vertex -18.141 13.441 4.425
      vertex -18.141 13.441 10.625
      vertex -16.55 14.1 4.425
    endloop
  endfacet
  facet normal -0.382684 0.923879 0
    outer loop
      vertex -16.55 14.1 4.425
      vertex -18.141 13.441 10.625
      vertex -16.55 14.1 10.625
    endloop
  endfacet
  facet normal -0.923879 0.382684 0
    outer loop
      vertex -18.8 11.85 4.425
      vertex -18.8 11.85 10.625
      vertex -18.141 13.441 4.425
    endloop
  endfacet
  facet normal -0.923879 0.382684 0
    outer loop
      vertex -18.141 13.441 4.425
      vertex -18.8 11.85 10.625
      vertex -18.141 13.441 10.625
    endloop
  endfacet
  facet normal -1 -0 -0
    outer loop
      vertex 3.7 13.35 4.425
      vertex 3.7 13.35 9.325
      vertex 3.7 15.75 4.425
    endloop
  endfacet
  facet normal -1 0 0
    outer loop
      vertex 3.7 15.75 4.425
      vertex 3.7 13.35 9.325
      vertex 3.7 15.75 9.325
    endloop
  endfacet
  facet normal 0 -1 0
    outer loop
      vertex 3.7 13.35 9.325
      vertex 3.7 13.35 4.425
      vertex 9 13.35 4.425
    endloop
  endfacet
  facet normal 0 -1 0
    outer loop
      vertex 9 13.35 9.325
      vertex 3.7 13.35 9.325
      vertex 9 13.35 4.425
    endloop
  endfacet
  facet normal 1 0 -0
    outer loop
      vertex 9 13.35 9.325
      vertex 9 13.35 4.425
      vertex 9 15.75 4.425
    endloop
  endfacet
  facet normal 1 0 0
    outer loop
      vertex 9 15.75 9.325
      vertex 9 13.35 9.325
      vertex 9 15.75 4.425
    endloop
  endfacet
  facet normal 0 1 0
    outer loop
      vertex 3.7 15.75 4.425
      vertex 3.7 15.75 9.325
      vertex 9 15.75 4.425
    endloop
  endfacet
  facet normal 0 1 0
    outer loop
      vertex 9 15.75 4.425
      vertex 3.7 15.75 9.325
      vertex 9 15.75 9.325
    endloop
  endfacet
  facet normal -0 -0 -1
    outer loop
      vertex -48.55 -33.05 -0.825
      vertex -48.55 -28.05 -0.825
      vertex 48.55 -33.05 -0.825
    endloop
  endfacet
  facet normal 0 0 -1
    outer loop
      vertex 48.55 -33.05 -0.825
      vertex -48.55 -28.05 -0.825
      vertex 15.95 -28.05 -0.825
    endloop
  endfacet
  facet normal 0 0 -1
    outer loop
      vertex 48.55 -33.05 -0.825
      vertex 15.95 -28.05 -0.825
      vertex 15.95 -23.05 -0.825
    endloop
  endfacet
  facet normal 0 0 -1
    outer loop
      vertex 15.95 -23.05 -0.825
      vertex -48.55 -23.05 -0.825
      vertex -48.55 23.05 -0.825
    endloop
  endfacet
  facet normal -0 -0 -1
    outer loop
      vertex 15.95 -23.05 -0.825
      vertex -48.55 23.05 -0.825
      vertex 48.55 -33.05 -0.825
    endloop
  endfacet
  facet normal 0 0 -1
    outer loop
      vertex 48.55 -33.05 -0.825
      vertex -48.55 23.05 -0.825
      vertex 15.95 23.05 -0.825
    endloop
  endfacet
  facet normal 0 0 -1
    outer loop
      vertex 48.55 -33.05 -0.825
      vertex 15.95 23.05 -0.825
      vertex 15.95 28.05 -0.825
    endloop
  endfacet
  facet normal 0 0 -1
    outer loop
      vertex 15.95 28.05 -0.825
      vertex -48.55 28.05 -0.825
      vertex -48.55 33.05 -0.825
    endloop
  endfacet
  facet normal 0 -0 -1
    outer loop
      vertex 15.95 28.05 -0.825
      vertex -48.55 33.05 -0.825
      vertex 48.55 33.05 -0.825
    endloop
  endfacet
  facet normal -0 0 -1
    outer loop
      vertex 15.95 28.05 -0.825
      vertex 48.55 33.05 -0.825
      vertex 48.55 -33.05 -0.825
    endloop
  endfacet
  facet normal 0 -1 0
    outer loop
      vertex -48.55 -28.05 -0.825
      vertex -48.55 -28.05 -9.325
      vertex 15.95 -28.05 -9.325
    endloop
  endfacet
  facet normal 0 -1 0
    outer loop
      vertex 15.95 -28.05 -0.825
      vertex -48.55 -28.05 -0.825
      vertex 15.95 -28.05 -9.325
    endloop
  endfacet
  facet normal -0 -0 -1
    outer loop
      vertex -48.55 -28.05 -9.325
      vertex -48.55 -23.05 -9.325
      vertex 15.95 -28.05 -9.325
    endloop
  endfacet
  facet normal 0 0 -1
    outer loop
      vertex 15.95 -28.05 -9.325
      vertex -48.55 -23.05 -9.325
      vertex 15.95 -23.05 -9.325
    endloop
  endfacet
  facet normal 0 1 0
    outer loop
      vertex -48.55 -23.05 -9.325
      vertex -48.55 -23.05 -0.825
      vertex 15.95 -23.05 -9.325
    endloop
  endfacet
  facet normal 0 1 0
    outer loop
      vertex 15.95 -23.05 -9.325
      vertex -48.55 -23.05 -0.825
      vertex 15.95 -23.05 -0.825
    endloop
  endfacet
  facet normal 0 -1 0
    outer loop
      vertex -48.55 23.05 -0.825
      vertex -48.55 23.05 -9.325
      vertex 15.95 23.05 -9.325
    endloop
  endfacet
  facet normal 0 -1 0
    outer loop
      vertex 15.95 23.05 -0.825
      vertex -48.55 23.05 -0.825
      vertex 15.95 23.05 -9.325
    endloop
  endfacet
  facet normal -0 -0 -1
    outer loop
      vertex -48.55 23.05 -9.325
      vertex -48.55 28.05 -9.325
      vertex 15.95 23.05 -9.325
    endloop
  endfacet
  facet normal 0 0 -1
    outer loop
      vertex 15.95 23.05 -9.325
      vertex -48.55 28.05 -9.325
      vertex 15.95 28.05 -9.325
    endloop
  endfacet
  facet normal 0 1 0
    outer loop
      vertex -48.55 28.05 -9.325
      vertex -48.55 28.05 -0.825
      vertex 15.95 28.05 -9.325
    endloop
  endfacet
  facet normal 0 1 0
    outer loop
      vertex 15.95 28.05 -9.325
      vertex -48.55 28.05 -0.825
      vertex 15.95 28.05 -0.825
    endloop
  endfacet
  facet normal 0 1 0
    outer loop
      vertex -48.55 33.05 -0.825
      vertex -48.55 33.05 0.825
      vertex 48.55 33.05 -0.825
    endloop
  endfacet
  facet normal 0 1 0
    outer loop
      vertex 48.55 33.05 -0.825
      vertex -48.55 33.05 0.825
      vertex 48.55 33.05 0.825
    endloop
  endfacet
  facet normal 0 1 0
    outer loop
      vertex -48.55 28.05 0.825
      vertex -48.55 28.05 5.025
      vertex 15.95 28.05 0.825
    endloop
  endfacet
  facet normal 0 1 0
    outer loop
      vertex 15.95 28.05 0.825
      vertex -48.55 28.05 5.025
      vertex 15.95 28.05 5.025
    endloop
  endfacet
  facet normal 0 -0 1
    outer loop
      vertex -48.55 28.05 5.025
      vertex -48.55 23.05 5.025
      vertex 15.95 23.05 5.025
    endloop
  endfacet
  facet normal 0 0 1
    outer loop
      vertex 15.95 28.05 5.025
      vertex -48.55 28.05 5.025
      vertex 15.95 23.05 5.025
    endloop
  endfacet
  facet normal 0 -1 0
    outer loop
      vertex -48.55 23.05 5.025
      vertex -48.55 23.05 0.825
      vertex 15.95 23.05 0.825
    endloop
  endfacet
  facet normal 0 -1 0
    outer loop
      vertex 15.95 23.05 5.025
      vertex -48.55 23.05 5.025
      vertex 15.95 23.05 0.825
    endloop
  endfacet
  facet normal 0 1 0
    outer loop
      vertex -48.55 -23.05 0.825
      vertex -48.55 -23.05 5.025
      vertex 15.95 -23.05 0.825
    endloop
  endfacet
  facet normal 0 1 0
    outer loop
      vertex 15.95 -23.05 0.825
      vertex -48.55 -23.05 5.025
      vertex 15.95 -23.05 5.025
    endloop
  endfacet
  facet normal 0 -0 1
    outer loop
      vertex -48.55 -23.05 5.025
      vertex -48.55 -28.05 5.025
      vertex 15.95 -28.05 5.025
    endloop
  endfacet
  facet normal 0 0 1
    outer loop
      vertex 15.95 -23.05 5.025
      vertex -48.55 -23.05 5.025
      vertex 15.95 -28.05 5.025
    endloop
  endfacet
  facet normal 0 -1 0
    outer loop
      vertex -48.55 -28.05 5.025
      vertex -48.55 -28.05 0.825
      vertex 15.95 -28.05 0.825
    endloop
  endfacet
  facet normal 0 -1 0
    outer loop
      vertex 15.95 -28.05 5.025
      vertex -48.55 -28.05 5.025
      vertex 15.95 -28.05 0.825
    endloop
  endfacet
  facet normal 0 -1 0
    outer loop
      vertex -48.55 -33.05 0.825
      vertex -48.55 -33.05 -0.825
      vertex 48.55 -33.05 -0.825
    endloop
  endfacet
  facet normal 0 -1 0
    outer loop
      vertex 48.55 -33.05 0.825
      vertex -48.55 -33.05 0.825
      vertex 48.55 -33.05 -0.825
    endloop
  endfacet
  facet normal 1 0 -0
    outer loop
      vertex 15.95 -28.05 5.025
      vertex 15.95 -28.05 0.825
      vertex 15.95 -23.05 0.825
    endloop
  endfacet
  facet normal 1 0 0
    outer loop
      vertex 15.95 -23.05 5.025
      vertex 15.95 -28.05 5.025
      vertex 15.95 -23.05 0.825
    endloop
  endfacet
  facet normal 1 0 -0
    outer loop
      vertex 15.95 23.05 5.025
      vertex 15.95 23.05 0.825
      vertex 15.95 28.05 0.825
    endloop
  endfacet
  facet normal 1 0 0
    outer loop
      vertex 15.95 28.05 5.025
      vertex 15.95 23.05 5.025
      vertex 15.95 28.05 0.825
    endloop
  endfacet
  facet normal 1 0 -0
    outer loop
      vertex 48.55 -33.05 0.825
      vertex 48.55 -33.05 -0.825
      vertex 48.55 33.05 -0.825
    endloop
  endfacet
  facet normal 1 0 0
    outer loop
      vertex 48.55 33.05 0.825
      vertex 48.55 -33.05 0.825
      vertex 48.55 33.05 -0.825
    endloop
  endfacet
  facet normal -1 -0 -0
    outer loop
      vertex 41.2 -27.35 0.825
      vertex 41.2 -27.35 5.025
      vertex 41.2 -24.95 0.825
    endloop
  endfacet
  facet normal -1 0 0
    outer loop
      vertex 41.2 -24.95 0.825
      vertex 41.2 -27.35 5.025
      vertex 41.2 -24.95 5.025
    endloop
  endfacet
  facet normal 0 -1 0
    outer loop
      vertex 41.2 -27.35 5.025
      vertex 41.2 -27.35 0.825
      vertex 46.5 -27.35 0.825
    endloop
  endfacet
  facet normal 0 -1 0
    outer loop
      vertex 46.5 -27.35 5.025
      vertex 41.2 -27.35 5.025
      vertex 46.5 -27.35 0.825
    endloop
  endfacet
  facet normal 1 0 -0
    outer loop
      vertex 46.5 -27.35 5.025
      vertex 46.5 -27.35 0.825
      vertex 46.5 -24.95 0.825
    endloop
  endfacet
  facet normal 1 0 0
    outer loop
      vertex 46.5 -24.95 5.025
      vertex 46.5 -27.35 5.025
      vertex 46.5 -24.95 0.825
    endloop
  endfacet
  facet normal 0 1 0
    outer loop
      vertex 41.2 -24.95 0.825
      vertex 41.2 -24.95 5.025
      vertex 46.5 -24.95 0.825
    endloop
  endfacet
  facet normal 0 1 0
    outer loop
      vertex 46.5 -24.95 0.825
      vertex 41.2 -24.95 5.025
      vertex 46.5 -24.95 5.025
    endloop
  endfacet
  facet normal -1 -0 -0
    outer loop
      vertex 41.2 24.95 0.825
      vertex 41.2 24.95 5.025
      vertex 41.2 27.35 0.825
    endloop
  endfacet
  facet normal -1 0 0
    outer loop
      vertex 41.2 27.35 0.825
      vertex 41.2 24.95 5.025
      vertex 41.2 27.35 5.025
    endloop
  endfacet
  facet normal 0 -1 0
    outer loop
      vertex 41.2 24.95 5.025
      vertex 41.2 24.95 0.825
      vertex 46.5 24.95 0.825
    endloop
  endfacet
  facet normal 0 -1 0
    outer loop
      vertex 46.5 24.95 5.025
      vertex 41.2 24.95 5.025
      vertex 46.5 24.95 0.825
    endloop
  endfacet
  facet normal 1 0 -0
    outer loop
      vertex 46.5 24.95 5.025
      vertex 46.5 24.95 0.825
      vertex 46.5 27.35 0.825
    endloop
  endfacet
  facet normal 1 0 0
    outer loop
      vertex 46.5 27.35 5.025
      vertex 46.5 24.95 5.025
      vertex 46.5 27.35 0.825
    endloop
  endfacet
  facet normal 0 1 0
    outer loop
      vertex 41.2 27.35 0.825
      vertex 41.2 27.35 5.025
      vertex 46.5 27.35 0.825
    endloop
  endfacet
  facet normal 0 1 0
    outer loop
      vertex 46.5 27.35 0.825
      vertex 41.2 27.35 5.025
      vertex 46.5 27.35 5.025
    endloop
  endfacet
  facet normal 0 0 1
    outer loop
      vertex -18.141 -10.259 10.625
      vertex -18.8 -11.85 10.625
      vertex -18.141 -13.441 10.625
    endloop
  endfacet
  facet normal -0 0 1
    outer loop
      vertex -14.959 -13.441 10.625
      vertex -18.141 -10.259 10.625
      vertex -16.55 -14.1 10.625
    endloop
  endfacet
  facet normal 0 0 1
    outer loop
      vertex -16.55 -14.1 10.625
      vertex -18.141 -10.259 10.625
      vertex -18.141 -13.441 10.625
    endloop
  endfacet
  facet normal -0 0 1
    outer loop
      vertex -14.3 -11.85 10.625
      vertex -18.141 -10.259 10.625
      vertex -14.959 -13.441 10.625
    endloop
  endfacet
  facet normal 0 -0 1
    outer loop
      vertex -14.959 -10.259 10.625
      vertex -18.141 -10.259 10.625
      vertex -14.3 -11.85 10.625
    endloop
  endfacet
  facet normal 0 -0 1
    outer loop
      vertex -16.55 -9.6 10.625
      vertex -18.141 -10.259 10.625
      vertex -14.959 -10.259 10.625
    endloop
  endfacet
  facet normal 0 0 1
    outer loop
      vertex -18.141 13.441 10.625
      vertex -18.8 11.85 10.625
      vertex -18.141 10.259 10.625
    endloop
  endfacet
  facet normal -0 0 1
    outer loop
      vertex -14.959 10.259 10.625
      vertex -18.141 13.441 10.625
      vertex -16.55 9.6 10.625
    endloop
  endfacet
  facet normal 0 0 1
    outer loop
      vertex -16.55 9.6 10.625
      vertex -18.141 13.441 10.625
      vertex -18.141 10.259 10.625
    endloop
  endfacet
  facet normal -0 0 1
    outer loop
      vertex -14.3 11.85 10.625
      vertex -18.141 13.441 10.625
      vertex -14.959 10.259 10.625
    endloop
  endfacet
  facet normal 0 -0 1
    outer loop
      vertex -14.959 13.441 10.625
      vertex -18.141 13.441 10.625
      vertex -14.3 11.85 10.625
    endloop
  endfacet
  facet normal 0 -0 1
    outer loop
      vertex -16.55 14.1 10.625
      vertex -18.141 13.441 10.625
      vertex -14.959 13.441 10.625
    endloop
  endfacet
  facet normal 0 -0 1
    outer loop
      vertex 3.7 15.75 9.325
      vertex 3.7 13.35 9.325
      vertex 9 13.35 9.325
    endloop
  endfacet
  facet normal 0 0 1
    outer loop
      vertex 9 15.75 9.325
      vertex 3.7 15.75 9.325
      vertex 9 13.35 9.325
    endloop
  endfacet
  facet normal 1 0 -0
    outer loop
      vertex 15.95 23.05 -0.825
      vertex 15.95 23.05 -9.325
      vertex 15.95 28.05 -9.325
    endloop
  endfacet
  facet normal 1 0 0
    outer loop
      vertex 15.95 28.05 -0.825
      vertex 15.95 23.05 -0.825
      vertex 15.95 28.05 -9.325
    endloop
  endfacet
  facet normal 1 0 -0
    outer loop
      vertex 15.95 -28.05 -0.825
      vertex 15.95 -28.05 -9.325
      vertex 15.95 -23.05 -9.325
    endloop
  endfacet
  facet normal 1 0 0
    outer loop
      vertex 15.95 -23.05 -0.825
      vertex 15.95 -28.05 -0.825
      vertex 15.95 -23.05 -9.325
    endloop
  endfacet
  facet normal 0 -0 1
    outer loop
      vertex 41.2 -24.95 5.025
      vertex 41.2 -27.35 5.025
      vertex 46.5 -27.35 5.025
    endloop
  endfacet
  facet normal 0 0 1
    outer loop
      vertex 46.5 -24.95 5.025
      vertex 41.2 -24.95 5.025
      vertex 46.5 -27.35 5.025
    endloop
  endfacet
  facet normal 0 -0 1
    outer loop
      vertex 41.2 27.35 5.025
      vertex 41.2 24.95 5.025
      vertex 46.5 24.95 5.025
    endloop
  endfacet
  facet normal 0 0 1
    outer loop
      vertex 46.5 27.35 5.025
      vertex 41.2 27.35 5.025
      vertex 46.5 24.95 5.025
    endloop
  endfacet
  facet normal -1 -0 -0
    outer loop
      vertex 41.2 24.95 -9.325
      vertex 41.2 24.95 -0.825
      vertex 41.2 27.35 -9.325
    endloop
  endfacet
  facet normal -1 0 0
    outer loop
      vertex 41.2 27.35 -9.325
      vertex 41.2 24.95 -0.825
      vertex 41.2 27.35 -0.825
    endloop
  endfacet
  facet normal 0 -1 0
    outer loop
      vertex 41.2 24.95 -0.825
      vertex 41.2 24.95 -9.325
      vertex 46.5 24.95 -9.325
    endloop
  endfacet
  facet normal 0 -1 0
    outer loop
      vertex 46.5 24.95 -0.825
      vertex 41.2 24.95 -0.825
      vertex 46.5 24.95 -9.325
    endloop
  endfacet
  facet normal -0 -0 -1
    outer loop
      vertex 41.2 24.95 -9.325
      vertex 41.2 27.35 -9.325
      vertex 46.5 24.95 -9.325
    endloop
  endfacet
  facet normal 0 0 -1
    outer loop
      vertex 46.5 24.95 -9.325
      vertex 41.2 27.35 -9.325
      vertex 46.5 27.35 -9.325
    endloop
  endfacet
  facet normal 0 1 0
    outer loop
      vertex 41.2 27.35 -9.325
      vertex 41.2 27.35 -0.825
      vertex 46.5 27.35 -9.325
    endloop
  endfacet
  facet normal 0 1 0
    outer loop
      vertex 46.5 27.35 -9.325
      vertex 41.2 27.35 -0.825
      vertex 46.5 27.35 -0.825
    endloop
  endfacet
  facet normal 0 -0 1
    outer loop
      vertex 41.2 27.35 -0.825
      vertex 41.2 24.95 -0.825
      vertex 46.5 24.95 -0.825
    endloop
  endfacet
  facet normal 0 0 1
    outer loop
      vertex 46.5 27.35 -0.825
      vertex 41.2 27.35 -0.825
      vertex 46.5 24.95 -0.825
    endloop
  endfacet
  facet normal 1 0 -0
    outer loop
      vertex 46.5 24.95 -0.825
      vertex 46.5 24.95 -9.325
      vertex 46.5 27.35 -9.325
    endloop
  endfacet
  facet normal 1 0 0
    outer loop
      vertex 46.5 27.35 -0.825
      vertex 46.5 24.95 -0.825
      vertex 46.5 27.35 -9.325
    endloop
  endfacet
  facet normal -1 -0 -0
    outer loop
      vertex 41.2 -27.35 -9.325
      vertex 41.2 -27.35 -0.825
      vertex 41.2 -24.95 -9.325
    endloop
  endfacet
  facet normal -1 0 0
    outer loop
      vertex 41.2 -24.95 -9.325
      vertex 41.2 -27.35 -0.825
      vertex 41.2 -24.95 -0.825
    endloop
  endfacet
  facet normal 0 -1 0
    outer loop
      vertex 41.2 -27.35 -0.825
      vertex 41.2 -27.35 -9.325
      vertex 46.5 -27.35 -9.325
    endloop
  endfacet
  facet normal 0 -1 0
    outer loop
      vertex 46.5 -27.35 -0.825
      vertex 41.2 -27.35 -0.825
      vertex 46.5 -27.35 -9.325
    endloop
  endfacet
  facet normal -0 -0 -1
    outer loop
      vertex 41.2 -27.35 -9.325
      vertex 41.2 -24.95 -9.325
      vertex 46.5 -27.35 -9.325
    endloop
  endfacet
  facet normal 0 0 -1
    outer loop
      vertex 46.5 -27.35 -9.325
      vertex 41.2 -24.95 -9.325
      vertex 46.5 -24.95 -9.325
    endloop
  endfacet
  facet normal 0 1 0
    outer loop
      vertex 41.2 -24.95 -9.325
      vertex 41.2 -24.95 -0.825
      vertex 46.5 -24.95 -9.325
    endloop
  endfacet
  facet normal 0 1 0
    outer loop
      vertex 46.5 -24.95 -9.325
      vertex 41.2 -24.95 -0.825
      vertex 46.5 -24.95 -0.825
    endloop
  endfacet
  facet normal 0 -0 1
    outer loop
      vertex 41.2 -24.95 -0.825
      vertex 41.2 -27.35 -0.825
      vertex 46.5 -27.35 -0.825
    endloop
  endfacet
  facet normal 0 0 1
    outer loop
      vertex 46.5 -24.95 -0.825
      vertex 41.2 -24.95 -0.825
      vertex 46.5 -27.35 -0.825
    endloop
  endfacet
  facet normal 1 0 -0
    outer loop
      vertex 46.5 -27.35 -0.825
      vertex 46.5 -27.35 -9.325
      vertex 46.5 -24.95 -9.325
    endloop
  endfacet
  facet normal 1 0 0
    outer loop
      vertex 46.5 -24.95 -0.825
      vertex 46.5 -27.35 -0.825
      vertex 46.5 -24.95 -9.325
    endloop
  endfacet
  facet normal -1 -0 -0
    outer loop
      vertex 23.35 24.95 0.825
      vertex 23.35 24.95 9.325
      vertex 23.35 27.35 0.825
    endloop
  endfacet
  facet normal -1 0 0
    outer loop
      vertex 23.35 27.35 0.825
      vertex 23.35 24.95 9.325
      vertex 23.35 27.35 9.325
    endloop
  endfacet
  facet normal 0 -1 0
    outer loop
      vertex 23.35 24.95 9.325
      vertex 23.35 24.95 0.825
      vertex 38.75 24.95 0.825
    endloop
  endfacet
  facet normal 0 -1 0
    outer loop
      vertex 38.75 24.95 9.325
      vertex 23.35 24.95 9.325
      vertex 38.75 24.95 0.825
    endloop
  endfacet
  facet normal -0 -0 -1
    outer loop
      vertex 23.35 24.95 0.825
      vertex 23.35 27.35 0.825
      vertex 38.75 24.95 0.825
    endloop
  endfacet
  facet normal 0 0 -1
    outer loop
      vertex 38.75 24.95 0.825
      vertex 23.35 27.35 0.825
      vertex 38.75 27.35 0.825
    endloop
  endfacet
  facet normal 0 1 0
    outer loop
      vertex 23.35 27.35 0.825
      vertex 23.35 27.35 9.325
      vertex 38.75 27.35 0.825
    endloop
  endfacet
  facet normal 0 1 0
    outer loop
      vertex 38.75 27.35 0.825
      vertex 23.35 27.35 9.325
      vertex 38.75 27.35 9.325
    endloop
  endfacet
  facet normal 0 -0 1
    outer loop
      vertex 23.35 27.35 9.325
      vertex 23.35 24.95 9.325
      vertex 38.75 24.95 9.325
    endloop
  endfacet
  facet normal 0 0 1
    outer loop
      vertex 38.75 27.35 9.325
      vertex 23.35 27.35 9.325
      vertex 38.75 24.95 9.325
    endloop
  endfacet
  facet normal 1 0 -0
    outer loop
      vertex 38.75 24.95 9.325
      vertex 38.75 24.95 0.825
      vertex 38.75 27.35 0.825
    endloop
  endfacet
  facet normal 1 0 0
    outer loop
      vertex 38.75 27.35 9.325
      vertex 38.75 24.95 9.325
      vertex 38.75 27.35 0.825
    endloop
  endfacet
endsolid OpenSCAD_Model
